<svg width="1936" height="1306" viewBox="0 0 1936 1306" fill="none" xmlns="http://www.w3.org/2000/svg">
<rect width="1936" height="1306" fill="white"/>
<path d="M109.8 186H120.66C126.64 186 131.14 188.06 131.14 193.62C131.14 196.5 129.28 198.9 126.82 199.58C129.48 200.36 131.78 202.78 131.78 206C131.78 211.58 127.68 214 121.3 214H109.8V186ZM121.1 202H114.32V209.76H121.1C124.66 209.76 127.04 209.08 127.04 205.84C127.04 202.68 124.66 202 121.1 202ZM120.48 190.24H114.32V197.78H120.52C123.66 197.78 126.4 197.3 126.4 193.96C126.4 190.74 123.62 190.24 120.48 190.24ZM145.487 194.34C150.847 194.34 154.527 198.42 154.547 204.4C154.547 204.94 154.507 205.48 154.467 205.96H140.307C140.867 209.4 143.287 210.84 146.007 210.84C147.927 210.84 149.967 210.08 151.547 208.82L153.627 211.8C151.287 213.8 148.647 214.5 145.747 214.5C140.007 214.5 135.947 210.5 135.947 204.42C135.947 198.42 139.847 194.34 145.487 194.34ZM145.407 198.06C142.427 198.06 140.767 199.98 140.327 202.78H150.267C149.807 199.8 148.067 198.06 145.407 198.06ZM169.75 194.34C174.31 194.34 177.53 197.48 177.53 201.96V214H173.33V203.34C173.33 200.12 171.67 198.32 168.87 198.32C166.17 198.32 163.91 200.1 163.91 203.38V214H159.71V194.84H163.87V197.18C165.41 194.92 167.79 194.34 169.75 194.34ZM192.049 194.34C197.409 194.34 201.089 198.42 201.109 204.4C201.109 204.94 201.069 205.48 201.029 205.96H186.869C187.429 209.4 189.849 210.84 192.569 210.84C194.489 210.84 196.529 210.08 198.109 208.82L200.189 211.8C197.849 213.8 195.209 214.5 192.309 214.5C186.569 214.5 182.509 210.5 182.509 204.42C182.509 198.42 186.409 194.34 192.049 194.34ZM191.969 198.06C188.989 198.06 187.329 199.98 186.889 202.78H196.829C196.369 199.8 194.629 198.06 191.969 198.06ZM218.572 194.84V198.64H212.012V214H207.812V198.64H203.972V194.84H207.812V191.6C207.812 187.76 209.752 184.7 214.232 184.7C216.472 184.7 218.152 185.3 219.572 186.14L218.092 189.66C217.112 189.1 215.772 188.64 214.512 188.64C212.892 188.64 212.012 189.7 212.012 191.6V194.84H218.572ZM227.347 194.84V214H223.147V194.84H227.347ZM225.227 185.26C226.887 185.26 228.187 186.56 228.187 188.22C228.187 189.88 226.887 191.14 225.227 191.14C223.567 191.14 222.307 189.88 222.307 188.22C222.307 186.56 223.567 185.26 225.227 185.26ZM246.949 194.84V198.64H239.609V206.98C239.609 209.56 240.969 210.56 242.649 210.56C243.949 210.56 245.369 209.98 246.509 209.26L248.169 212.6C246.629 213.64 244.689 214.5 242.289 214.5C237.949 214.5 235.409 212.16 235.409 207.06V198.64H231.589V194.84H235.409V189.04H239.609V194.84H246.949ZM266.893 196.38L265.093 199.64C263.933 198.92 261.553 198 259.173 198C256.893 198 255.553 198.92 255.553 200.28C255.553 201.62 256.953 202 258.713 202.26L260.693 202.56C264.873 203.16 267.353 204.94 267.353 208.22C267.353 211.9 264.153 214.48 258.633 214.48C256.653 214.48 253.213 214.1 250.413 212.02L252.353 208.88C253.733 209.94 255.553 210.84 258.673 210.84C261.533 210.84 263.033 209.94 263.033 208.5C263.033 207.42 261.993 206.7 259.713 206.38L257.713 206.12C253.473 205.54 251.213 203.58 251.213 200.5C251.213 196.7 254.253 194.36 259.133 194.36C262.133 194.36 264.913 195.1 266.893 196.38ZM291.989 194.34C297.909 194.34 302.309 198.68 302.309 204.42C302.309 210.16 297.909 214.5 291.989 214.5C286.069 214.5 281.689 210.16 281.689 204.42C281.689 198.68 286.069 194.34 291.989 194.34ZM291.989 198.28C288.569 198.28 285.989 200.8 285.989 204.42C285.989 208.04 288.569 210.56 291.989 210.56C295.409 210.56 298.009 208.04 298.009 204.42C298.009 200.8 295.409 198.28 291.989 198.28ZM319.588 194.84V198.64H313.028V214H308.828V198.64H304.988V194.84H308.828V191.6C308.828 187.76 310.768 184.7 315.248 184.7C317.488 184.7 319.168 185.3 320.588 186.14L319.108 189.66C318.128 189.1 316.788 188.64 315.528 188.64C313.908 188.64 313.028 189.7 313.028 191.6V194.84H319.588ZM353.149 194.84V214H348.969V211.7C347.649 213.4 345.669 214.5 342.949 214.5C337.589 214.5 333.369 210.28 333.369 204.42C333.369 198.56 337.589 194.34 342.949 194.34C345.669 194.34 347.649 195.46 348.969 197.16V194.84H353.149ZM343.449 198.28C339.849 198.28 337.669 201.06 337.669 204.42C337.669 207.78 339.849 210.56 343.449 210.56C346.909 210.56 349.229 207.92 349.229 204.42C349.229 200.92 346.909 198.28 343.449 198.28ZM369.75 194.34C374.31 194.34 377.53 197.48 377.53 201.96V214H373.33V203.34C373.33 200.12 371.67 198.32 368.87 198.32C366.17 198.32 363.91 200.1 363.91 203.38V214H359.71V194.84H363.87V197.18C365.41 194.92 367.79 194.34 369.75 194.34ZM415.611 209.76V214H395.191V186H415.351V190.24H399.711V197.78H414.811V202.02H399.711V209.76H415.611ZM452.616 186V214H448.096V190.96L439.916 211.26H435.156L426.976 191.18V214H422.456V186H429.396L437.536 206L445.676 186H452.616ZM480.87 188.54L478.57 192.2C476.19 190.68 473.55 189.8 470.71 189.8C466.97 189.8 464.41 191.42 464.41 193.98C464.41 196.3 466.59 197.2 470.23 197.72L472.17 197.98C476.71 198.6 481.19 200.48 481.19 205.68C481.19 211.38 476.03 214.5 469.97 214.5C466.17 214.5 461.61 213.24 458.71 210.74L461.17 207.14C463.09 208.9 466.71 210.22 469.95 210.22C473.61 210.22 476.49 208.66 476.49 206.08C476.49 203.88 474.29 202.86 470.19 202.3L468.01 202C463.85 201.42 459.71 199.46 459.71 194.26C459.71 188.64 464.69 185.52 470.75 185.52C474.83 185.52 478.05 186.66 480.87 188.54ZM509.627 194.84V198.64H503.067V214H498.867V198.64H495.027V194.84H498.867V191.6C498.867 187.76 500.807 184.7 505.287 184.7C507.527 184.7 509.207 185.3 510.627 186.14L509.147 189.66C508.167 189.1 506.827 188.64 505.567 188.64C503.947 188.64 503.067 189.7 503.067 191.6V194.84H509.627ZM522.536 194.34C528.456 194.34 532.856 198.68 532.856 204.42C532.856 210.16 528.456 214.5 522.536 214.5C516.616 214.5 512.236 210.16 512.236 204.42C512.236 198.68 516.616 194.34 522.536 194.34ZM522.536 198.28C519.116 198.28 516.536 200.8 516.536 204.42C516.536 208.04 519.116 210.56 522.536 210.56C525.956 210.56 528.556 208.04 528.556 204.42C528.556 200.8 525.956 198.28 522.536 198.28ZM547.73 194.34C549.01 194.34 549.99 194.5 550.95 194.88L549.95 199.02C549.07 198.56 547.79 198.32 546.77 198.32C544.11 198.32 542.21 200.2 542.21 203.46V214H538.03V194.84H542.17V197C543.43 195.18 545.39 194.34 547.73 194.34ZM586.548 209.76V214H566.128V186H586.288V190.24H570.648V197.78H585.748V202.02H570.648V209.76H586.548ZM602.914 194.34C607.474 194.34 610.694 197.48 610.694 201.96V214H606.494V203.34C606.494 200.12 604.834 198.32 602.034 198.32C599.334 198.32 597.074 200.1 597.074 203.38V214H592.874V194.84H597.034V197.18C598.574 194.92 600.954 194.34 602.914 194.34ZM625.253 194.34C627.973 194.34 629.953 195.46 631.273 197.16V185.2H635.453V214H631.273V211.7C629.953 213.4 627.973 214.5 625.253 214.5C619.893 214.5 615.673 210.28 615.673 204.42C615.673 198.56 619.893 194.34 625.253 194.34ZM625.753 198.28C622.153 198.28 619.973 201.06 619.973 204.42C619.973 207.78 622.153 210.56 625.753 210.56C629.213 210.56 631.533 207.92 631.533 204.42C631.533 200.92 629.213 198.28 625.753 198.28ZM676.696 186V202.96C676.696 210.74 671.436 214.5 664.816 214.5C658.196 214.5 652.936 210.74 652.936 202.96V186H657.456V202.62C657.456 207.96 660.476 210.16 664.816 210.16C669.156 210.16 672.176 207.96 672.176 202.62V186H676.696ZM698.222 196.38L696.422 199.64C695.262 198.92 692.882 198 690.502 198C688.222 198 686.882 198.92 686.882 200.28C686.882 201.62 688.282 202 690.042 202.26L692.022 202.56C696.202 203.16 698.682 204.94 698.682 208.22C698.682 211.9 695.482 214.48 689.962 214.48C687.982 214.48 684.542 214.1 681.742 212.02L683.682 208.88C685.062 209.94 686.882 210.84 690.002 210.84C692.862 210.84 694.362 209.94 694.362 208.5C694.362 207.42 693.322 206.7 691.042 206.38L689.042 206.12C684.802 205.54 682.542 203.58 682.542 200.5C682.542 196.7 685.582 194.36 690.462 194.36C693.462 194.36 696.242 195.1 698.222 196.38ZM711.776 194.34C717.136 194.34 720.816 198.42 720.836 204.4C720.836 204.94 720.796 205.48 720.756 205.96H706.596C707.156 209.4 709.576 210.84 712.296 210.84C714.216 210.84 716.256 210.08 717.836 208.82L719.916 211.8C717.576 213.8 714.936 214.5 712.036 214.5C706.296 214.5 702.236 210.5 702.236 204.42C702.236 198.42 706.136 194.34 711.776 194.34ZM711.696 198.06C708.716 198.06 707.056 199.98 706.616 202.78H716.556C716.096 199.8 714.356 198.06 711.696 198.06ZM735.699 194.34C736.979 194.34 737.959 194.5 738.919 194.88L737.919 199.02C737.039 198.56 735.759 198.32 734.739 198.32C732.079 198.32 730.179 200.2 730.179 203.46V214H725.999V194.84H730.139V197C731.399 195.18 733.359 194.34 735.699 194.34ZM757.636 196.38L755.836 199.64C754.676 198.92 752.296 198 749.916 198C747.636 198 746.296 198.92 746.296 200.28C746.296 201.62 747.696 202 749.456 202.26L751.436 202.56C755.616 203.16 758.096 204.94 758.096 208.22C758.096 211.9 754.896 214.48 749.376 214.48C747.396 214.48 743.956 214.1 741.156 212.02L743.096 208.88C744.476 209.94 746.296 210.84 749.416 210.84C752.276 210.84 753.776 209.94 753.776 208.5C753.776 207.42 752.736 206.7 750.456 206.38L748.456 206.12C744.216 205.54 741.956 203.58 741.956 200.5C741.956 196.7 744.996 194.36 749.876 194.36C752.876 194.36 755.656 195.1 757.636 196.38Z" fill="black"/>
<g clip-path="url(#clip0_1689_61989)">
<path d="M1028.76 820.661L600.337 1055.54L106 782.853L534.425 548.234L1028.76 820.661Z" fill="#F2F5F9"/>
<path d="M1028.75 820.66V827.134L600.326 1062.01V1055.54L1028.75 820.66Z" fill="#DAE2EA"/>
<path d="M600.337 1055.56V1062.03L106 789.349V782.875L600.337 1055.56Z" fill="#C7CFDB"/>
<path d="M840.65 833.656L854.107 826.146L847.516 795.847L820.053 786.266L810.99 795.847L815.11 809.572L840.65 833.656Z" fill="#252C35"/>
<path d="M706.35 759.028L719.807 751.518L712.941 721.219L679.985 711.379V727.176L680.809 734.944L706.35 759.028Z" fill="#252C35"/>
<path d="M881.005 715.283L891.99 725.383L931.537 755.422L937.305 767.334C937.305 767.334 945.543 777.434 938.403 788.828L930.713 802.294L884.85 827.154C884.85 827.154 867.548 833.11 851.07 827.154C851.07 827.154 849.972 804.107 827.452 793.23C827.452 793.23 809.601 785.203 815.368 809.545L716.501 751.797C716.501 751.797 715.952 734.187 694.256 720.98C694.256 720.98 680.25 713.47 679.975 727.195C679.975 727.195 672.285 723.829 673.658 706.479C673.658 706.479 674.482 702.594 675.855 700.522V683.69C675.855 683.69 676.954 671.26 692.608 661.937C708.262 652.615 723.367 645.364 723.367 645.364C723.367 645.364 734.077 639.667 747.809 646.659L770.329 647.953C770.329 647.953 808.502 659.348 847.5 687.574L881.005 715.283Z" fill="#F4F3F4"/>
<path d="M675.577 683.69C675.577 683.69 676.676 671.26 692.33 661.937C707.984 652.615 723.088 645.364 723.088 645.364C723.088 645.364 733.799 639.667 747.531 646.659C747.531 646.659 719.244 647.176 688.21 677.734L719.244 677.216C719.244 677.216 772.247 700.264 792.295 720.203L817.012 760.601C817.012 760.601 828.272 774.326 844.201 786.239L675.577 683.69Z" fill="#D8D8D8"/>
<path d="M931.271 755.16L937.038 767.072C937.038 767.072 945.277 777.171 938.136 788.566L930.447 802.032L884.583 826.892C884.583 826.892 867.282 832.848 850.804 826.892C850.804 826.892 849.705 803.844 827.185 792.968C827.185 792.968 809.334 784.94 815.102 809.283L716.234 751.534C716.234 751.534 715.685 733.925 693.989 720.718C693.989 720.718 679.983 713.208 679.708 726.933C679.708 726.933 672.019 723.567 673.392 706.216C673.392 706.216 674.216 702.332 675.589 700.26V690.938L854.649 798.147C854.649 798.147 875.52 800.219 889.801 796.335C904.082 792.45 927.426 773.028 927.426 773.028L931.271 755.16Z" fill="#D8D8D8"/>
<path d="M848.059 811.139C848.059 811.139 873.051 820.98 896.944 808.291C920.837 795.602 929.625 789.905 929.625 789.905C929.625 789.905 938.688 783.69 940.61 776.439C940.61 776.439 940.061 772.036 936.765 767.375C936.765 767.375 939.237 775.403 927.153 784.725C915.069 794.048 899.141 801.817 899.141 801.817C899.141 801.817 873.325 813.211 853.827 808.032C853.827 808.032 849.707 806.737 847.785 805.96C847.785 805.96 838.722 788.61 822.519 788.351C822.519 788.351 836.525 790.164 848.059 811.139Z" fill="#F4F3F4"/>
<path d="M753.577 747.147C753.577 744.817 752.204 742.486 750.007 741.191L745.063 738.602C745.063 740.932 746.437 743.263 748.634 744.558L753.577 747.147Z" fill="#425053"/>
<path d="M880.471 707.791L875.802 711.157L880.745 715.3L881.569 714.265C883.217 712.711 883.766 710.38 882.942 708.308C882.942 707.532 881.569 707.014 880.471 707.791Z" fill="#D8D8D8"/>
<path d="M928.519 782.1C928.519 782.1 924.399 761.642 931.265 755.168L937.032 767.08C937.032 767.339 935.934 775.108 928.519 782.1Z" fill="white"/>
<path d="M889.795 803.887C889.795 803.887 882.38 797.413 876.063 795.859H860.134C856.839 795.859 854.367 798.19 854.367 801.298V802.592C854.367 805.7 856.839 808.031 860.134 808.031C867.824 808.031 881.83 807.772 889.795 803.887Z" fill="white"/>
<path d="M792.316 720.237L816.484 759.34C816.484 759.34 824.448 768.145 839.553 761.93C854.658 755.715 884.593 736.552 884.593 736.552C884.593 736.552 892.831 732.149 886.79 723.863C880.748 715.317 847.243 689.68 847.243 689.68C847.243 689.68 833.236 703.923 792.316 720.237Z" fill="#252C35"/>
<path d="M753.308 700.82L748.914 728.011L806.037 764.007C806.037 764.007 800.27 737.334 778.574 716.358L753.308 700.82Z" fill="#252C35"/>
<path d="M746.17 696.416L742.326 724.125L696.188 694.345C696.188 694.345 711.567 682.691 728.869 689.683L746.17 696.416Z" fill="#252C35"/>
<path d="M719.253 677.735H688.22C688.22 677.735 708.268 651.062 747.815 646.66L767.588 647.696C767.588 647.696 771.708 649.509 767.588 650.286C767.588 650.545 745.892 655.983 719.253 677.735Z" fill="#252C35"/>
<path d="M923.58 776.094L889.801 794.48C889.801 794.48 893.096 799.659 897.765 799.659C902.434 799.659 922.207 786.452 922.207 786.452C922.207 786.452 925.503 783.086 923.58 776.094Z" fill="#425053"/>
<path d="M804.942 754.102H799.175L793.133 756.95C792.309 757.468 791.76 758.245 791.76 759.022C791.76 760.576 793.408 761.87 795.055 761.352L800.823 759.54C800.823 759.54 802.196 758.763 801.372 756.691L805.766 756.95L804.942 754.102Z" fill="#D8D8D8"/>
<path d="M927.429 792.176V798.132L900.24 813.411V807.195L927.429 792.176Z" fill="white"/>
<path d="M840.429 833.571C847.342 830.299 848.589 819.461 843.214 809.364C837.839 799.266 827.877 793.733 820.964 797.005C814.051 800.277 812.804 811.115 818.179 821.213C823.554 831.31 833.516 836.844 840.429 833.571Z" fill="#425053"/>
<path d="M838.336 829.692C843.759 827.125 844.734 818.621 840.516 810.696C836.297 802.771 828.482 798.427 823.06 800.994C817.638 803.56 816.662 812.065 820.881 819.989C825.099 827.914 832.914 832.258 838.336 829.692Z" fill="#92979E"/>
<path d="M705.574 759.267C712.487 755.995 713.734 745.156 708.358 735.059C702.983 724.961 693.021 719.428 686.108 722.7C679.195 725.972 677.948 736.811 683.324 746.908C688.699 757.006 698.661 762.539 705.574 759.267Z" fill="#425053"/>
<path d="M703.324 755.546C708.61 753.044 709.586 744.798 705.504 737.129C701.421 729.46 693.826 725.272 688.54 727.774C683.253 730.276 682.277 738.522 686.36 746.191C690.442 753.86 698.037 758.048 703.324 755.546Z" fill="#92979E"/>
<path d="M794.789 724.087L792.317 719.944C833.237 703.889 847.244 689.387 847.244 689.387C847.244 689.387 881.023 715.024 886.791 723.57C888.713 726.418 889.262 728.749 888.713 730.562C880.199 724.864 846.42 705.442 794.789 724.087Z" fill="#576169"/>
<path d="M759.076 714.804L756.879 732.931L748.915 728.011L753.309 700.82L778.575 716.617C784.892 722.573 789.835 729.306 793.68 735.521L759.076 714.804Z" fill="#576169"/>
<path d="M725.025 696.934C725.025 696.934 716.511 692.532 703.329 699.006L696.188 694.345C696.188 694.345 711.568 682.691 728.87 689.683L746.171 696.675L744.798 707.293L725.025 696.934Z" fill="#576169"/>
<path d="M696.188 677.745C698.111 674.378 703.604 669.199 716.511 662.207C737.658 650.554 755.509 651.072 762.924 652.108C754.96 654.956 738.482 662.207 719.258 677.745H696.188Z" fill="#576169"/>
<path d="M776.391 832.33V651.058L519.336 542.035V721.236L776.391 832.33Z" fill="#E5E5E4"/>
<path d="M266.675 826.042L519.336 721.163V505.707L265.852 616.283L266.675 826.042Z" fill="#F4F3F4"/>
<path d="M389.154 562.982L651.702 419L797.806 634.456L776.385 646.109L587.438 582.663L414.146 600.014L389.154 562.982Z" fill="#2E3740"/>
<path d="M505.601 472.864L651.705 419L389.157 562.982L240.856 617.882L505.601 472.864Z" fill="#252C35"/>
<path d="M240.856 617.861V625.888L389.157 569.176L413.05 604.913L587.441 585.75L776.388 651.008L797.809 639.354V634.434L776.388 646.087L587.441 582.642L414.149 599.992L389.157 562.961L240.856 617.861Z" fill="#C2C1C1"/>
<path d="M265.848 616.344L255.412 620.487V819.887L266.672 826.102L265.848 616.344Z" fill="#E5E5E4"/>
<path d="M776.381 651.006L785.444 646.086V827.618L776.381 832.279V651.006Z" fill="#D8D8D8"/>
<path d="M255.412 819.887L519.333 961.538V975.004L255.412 835.165V819.887Z" fill="#C7CFDB"/>
<path d="M785.454 827.637V839.808L519.336 974.985V961.519L785.454 827.637Z" fill="#DAE2EA"/>
<path d="M266.675 826.047L519.336 721.168L776.391 832.262L519.336 961.484L266.675 826.047Z" fill="#EDEFF2"/>
<path d="M654.718 708.477V778.137L439.133 880.686L334.224 823.714" stroke="#25B4B3" stroke-width="28.833" stroke-miterlimit="10"/>
<path d="M431.732 788.012L530.05 837.473" stroke="#25B4B3" stroke-width="28.833" stroke-miterlimit="10"/>
<path d="M487.486 760.789L587.452 810.251" stroke="#25B4B3" stroke-width="28.833" stroke-miterlimit="10"/>
<path d="M654.725 711.65V571.293" stroke="#25B4B3" stroke-width="28.833" stroke-miterlimit="10"/>
<path d="M543.21 678.734L446.265 721.981V784.131L543.21 740.885V678.734Z" fill="#F4F3F4"/>
<path d="M421.827 709.283L446.269 721.973L543.214 678.726L519.321 669.145L421.827 709.283Z" fill="white"/>
<path d="M453.41 724.004L539.095 686.195V688.785L453.41 727.888V724.004Z" fill="#E5E5E4"/>
<path d="M453.41 730.785L539.095 692.977V695.825L453.41 734.669V730.785Z" fill="#E5E5E4"/>
<path d="M453.41 737.792L539.095 700.242V702.832L453.41 741.935V737.792Z" fill="#E5E5E4"/>
<path d="M424.031 666.527L376.245 686.467L419.912 710.292L472.091 686.208L424.031 666.527Z" fill="#CFCECE"/>
<path d="M472.093 686.195L419.913 710.279V803.764L472.093 779.68V686.195Z" fill="white"/>
<path d="M376.245 780.228L419.912 803.794V710.309L376.245 686.484V780.228Z" fill="#E5E5E4"/>
<path d="M378.158 686.187V676.605L420.451 698.358V708.976L378.158 686.187Z" fill="#252C35"/>
<path d="M420.471 708.972L469.08 686.184V677.379L420.471 699.65V708.972Z" fill="#576169"/>
<path d="M424.031 619.93L376.245 639.87L419.912 663.694L472.091 639.352L424.031 619.93Z" fill="white"/>
<path d="M472.093 639.305L419.913 663.647V703.009L472.093 678.926V639.305Z" fill="white"/>
<path d="M376.245 679.249L419.912 703.073V663.711L376.245 639.887V679.249Z" fill="#E5E5E4"/>
<path d="M374.885 726.59C374.885 727.108 374.885 727.367 374.885 727.885C374.885 728.403 374.885 728.662 374.61 729.179C374.61 729.438 374.335 729.956 374.335 730.215C374.335 730.733 374.061 730.992 374.061 731.51C374.061 731.769 373.786 732.287 373.511 732.546C373.237 733.064 373.237 733.323 372.962 733.841C372.687 734.1 372.687 734.359 372.413 734.877C372.138 735.395 371.864 735.912 371.314 736.171C371.04 736.689 370.49 736.948 370.216 737.466L369.941 737.725C369.392 738.243 368.843 738.761 368.019 739.538C367.469 739.797 367.195 740.315 366.646 740.574C366.371 740.833 365.822 741.092 365.547 741.351C364.998 741.61 364.449 742.127 363.899 742.386C363.35 742.645 362.801 743.163 362.252 743.422C360.878 744.199 359.505 744.717 358.132 745.494C357.857 745.753 357.308 745.753 357.034 746.012C355.935 746.53 354.836 746.789 353.738 747.307C353.189 747.566 352.914 747.566 352.365 747.825C351.541 748.084 350.992 748.343 350.168 748.343C349.618 748.602 349.069 748.602 348.52 748.86C347.696 749.119 346.872 749.119 346.048 749.378C345.499 749.378 344.95 749.637 344.4 749.637C342.753 749.896 341.105 750.155 339.457 750.155C338.908 750.155 338.359 750.155 337.809 750.155C336.711 750.155 335.887 750.414 334.788 750.414C334.239 750.414 333.415 750.414 332.866 750.414C332.042 750.414 331.218 750.414 330.394 750.414C329.845 750.414 329.021 750.414 328.472 750.414C327.648 750.414 327.099 750.414 326.275 750.414C325.726 750.414 324.902 750.414 324.352 750.155C323.528 750.155 322.979 749.896 322.155 749.896C321.606 749.896 320.782 749.637 320.233 749.637C319.409 749.637 318.585 749.378 318.036 749.378C317.487 749.378 316.937 749.119 316.113 749.119C315.29 748.86 314.191 748.602 313.367 748.602C312.818 748.602 312.269 748.343 311.994 748.343C310.346 747.825 308.973 747.307 307.325 746.789C306.501 746.53 305.952 746.271 305.128 746.012C304.854 745.753 304.304 745.753 304.03 745.494C302.931 744.976 301.833 744.458 300.734 743.94C292.22 739.279 287.826 733.323 287.826 727.108L287.552 815.154C287.552 821.37 291.671 827.326 300.459 831.987C301.558 832.505 302.656 833.023 303.755 833.541C304.03 833.8 304.579 833.8 304.854 834.059C305.403 834.318 306.227 834.577 306.776 834.836H307.051C308.424 835.353 310.072 835.871 311.719 836.389H311.994C312.269 836.389 312.818 836.648 313.092 836.648C313.916 836.907 314.74 837.166 315.839 837.166C316.113 837.166 316.388 837.166 316.663 837.425C316.937 837.425 317.487 837.425 317.761 837.684C318.585 837.943 319.409 837.943 319.958 837.943C320.233 837.943 320.508 837.943 320.782 838.202C321.057 838.202 321.331 838.202 321.881 838.202C322.705 838.202 323.254 838.461 324.078 838.461C324.352 838.461 324.902 838.461 325.176 838.461C325.451 838.461 325.726 838.461 326.275 838.461C327.099 838.461 327.648 838.461 328.472 838.461C328.746 838.461 329.296 838.461 329.57 838.461C329.845 838.461 330.12 838.461 330.394 838.461C331.218 838.461 332.042 838.461 332.866 838.461C333.141 838.461 333.69 838.461 333.964 838.461C334.239 838.461 334.514 838.461 334.788 838.461C335.887 838.461 336.711 838.461 337.809 838.202C338.084 838.202 338.633 838.202 338.908 838.202H339.182C340.83 837.943 342.478 837.943 344.126 837.684H344.4C344.95 837.684 345.224 837.425 345.774 837.425C346.598 837.166 347.421 837.166 348.245 836.907C348.795 836.648 349.344 836.648 349.893 836.389C350.717 836.13 351.266 836.13 352.09 835.871C352.365 835.871 352.365 835.871 352.639 835.612C352.914 835.612 353.189 835.353 353.463 835.353C354.562 835.094 355.66 834.577 356.759 834.059C357.308 833.8 357.583 833.8 357.857 833.541C359.231 833.023 360.604 832.246 361.977 831.469C362.251 831.469 362.252 831.21 362.526 831.21C362.801 830.951 363.35 830.692 363.625 830.433C364.174 830.174 364.723 829.915 365.272 829.397C365.822 829.138 366.096 828.879 366.371 828.62C366.92 828.361 367.195 827.844 367.744 827.585L368.019 827.326C368.568 826.808 369.117 826.29 369.667 825.772L369.941 825.513C370.216 825.254 370.49 824.995 370.765 824.477C370.765 824.218 371.04 824.218 371.04 823.959C371.314 823.441 371.864 822.923 372.138 822.405C372.138 822.146 372.413 821.887 372.687 821.887C372.687 821.887 372.687 821.629 372.962 821.629C373.237 821.111 373.511 820.852 373.511 820.334C373.511 820.075 373.786 819.816 373.786 819.557V819.298C374.061 818.78 374.061 818.521 374.061 818.003C374.061 817.744 374.335 817.485 374.335 817.226V816.967C374.335 816.449 374.335 816.19 374.61 815.672C374.61 815.413 374.61 815.154 374.61 814.896V814.637L374.885 726.59Z" fill="white"/>
<path d="M362.246 709.751C379.273 719.073 379.273 733.834 362.52 743.157C345.768 752.479 318.305 752.479 301.278 743.157C284.25 733.834 284.25 719.073 301.003 709.751C317.755 700.687 345.219 700.687 362.246 709.751Z" fill="#808B91"/>
<path d="M374.885 702.277C374.885 702.795 374.885 703.054 374.885 703.572C374.885 704.09 374.885 704.349 374.61 704.867C374.61 705.126 374.335 705.644 374.335 705.903C374.335 706.421 374.061 706.68 374.061 707.198C374.061 707.457 373.786 707.974 373.511 708.233C373.237 708.751 373.237 709.01 372.962 709.528C372.687 709.787 372.687 710.046 372.413 710.564C372.138 711.082 371.864 711.6 371.314 711.859C371.04 712.377 370.49 712.636 370.216 713.154L369.941 713.413C369.392 713.931 368.843 714.449 368.019 715.225C367.469 715.484 367.195 716.002 366.646 716.261C366.371 716.52 365.822 716.779 365.547 717.038C364.998 717.297 364.449 717.815 363.899 718.074C363.35 718.333 362.801 718.851 362.252 719.11C360.878 719.887 359.505 720.405 358.132 721.181C357.857 721.44 357.308 721.44 357.034 721.699C355.935 722.217 354.836 722.476 353.738 722.994C353.189 723.253 352.914 723.253 352.365 723.512C351.541 723.771 350.992 724.03 350.168 724.03C349.618 724.289 349.069 724.289 348.52 724.548C347.696 724.807 346.872 724.807 346.048 725.066C345.499 725.066 344.95 725.325 344.4 725.325C342.753 725.584 341.105 725.843 339.457 725.843C338.908 725.843 338.359 725.843 337.809 725.843C336.711 725.843 335.887 726.102 334.788 726.102C334.239 726.102 333.415 726.102 332.866 726.102C332.042 726.102 331.218 726.102 330.394 726.102C329.845 726.102 329.021 726.102 328.472 726.102C327.648 726.102 327.099 726.102 326.275 726.102C325.726 726.102 324.902 726.102 324.352 725.843C323.528 725.843 322.979 725.584 322.155 725.584C321.606 725.584 320.782 725.325 320.233 725.325C319.409 725.325 318.585 725.066 318.036 725.066C317.487 725.066 316.937 724.807 316.113 724.807C315.29 724.548 314.191 724.289 313.367 724.289C312.818 724.289 312.269 724.03 311.994 724.03C310.346 723.512 308.973 722.994 307.325 722.476C306.501 722.217 305.952 721.958 305.128 721.699C304.854 721.44 304.304 721.44 304.03 721.181C302.931 720.664 301.833 720.146 300.734 719.628C292.22 714.966 287.826 709.01 287.826 702.795L287.552 727.656C287.552 733.871 291.671 739.827 300.459 744.488C301.558 745.006 302.656 745.524 303.755 746.042C304.03 746.301 304.579 746.301 304.854 746.56C305.403 746.819 306.227 747.078 306.776 747.337H307.051C308.424 747.854 310.072 748.372 311.719 748.89H311.994C312.269 748.89 312.818 749.149 313.092 749.149C313.916 749.408 314.74 749.667 315.839 749.667C316.113 749.667 316.388 749.667 316.663 749.926C316.937 749.926 317.487 749.926 317.761 750.185C318.585 750.444 319.409 750.444 319.958 750.444C320.233 750.444 320.508 750.444 320.782 750.703C321.057 750.703 321.331 750.703 321.881 750.703C322.705 750.703 323.254 750.962 324.078 750.962C324.352 750.962 324.902 750.962 325.176 750.962C325.451 750.962 325.726 750.962 326.275 750.962C327.099 750.962 327.648 750.962 328.472 750.962C328.746 750.962 329.296 750.962 329.57 750.962C329.845 750.962 330.12 750.962 330.394 750.962C331.218 750.962 332.042 750.962 332.866 750.962C333.141 750.962 333.69 750.962 333.964 750.962C334.239 750.962 334.514 750.962 334.788 750.962C335.887 750.962 336.711 750.962 337.809 750.703C338.084 750.703 338.633 750.703 338.908 750.703H339.182C340.83 750.444 342.478 750.444 344.126 750.185H344.4C344.95 750.185 345.224 749.926 345.774 749.926C346.598 749.667 347.421 749.667 348.245 749.408C348.795 749.149 349.344 749.149 349.893 748.89C350.717 748.631 351.266 748.631 352.09 748.372C352.365 748.372 352.365 748.372 352.639 748.113C352.914 748.113 353.189 747.854 353.463 747.854C354.562 747.596 355.66 747.078 356.759 746.56C357.308 746.301 357.583 746.301 357.857 746.042C359.231 745.524 360.604 744.747 361.977 743.97C362.251 743.97 362.252 743.711 362.526 743.711C362.801 743.452 363.35 743.193 363.625 742.934C364.174 742.675 364.723 742.416 365.272 741.898C365.822 741.639 366.096 741.38 366.371 741.121C366.92 740.863 367.195 740.345 367.744 740.086L368.019 739.827C368.568 739.309 369.117 738.791 369.667 738.273L369.941 738.014C370.216 737.755 370.49 737.496 370.765 736.978C370.765 736.719 371.04 736.719 371.04 736.46C371.314 735.942 371.864 735.424 372.138 734.906C372.138 734.647 372.413 734.389 372.687 734.389C372.687 734.389 372.687 734.13 372.962 734.13C373.237 733.612 373.511 733.353 373.511 732.835C373.511 732.576 373.786 732.317 373.786 732.058V731.799C374.061 731.281 374.061 731.022 374.061 730.504C374.061 730.245 374.335 729.986 374.335 729.727V729.468C374.335 728.95 374.335 728.691 374.61 728.173C374.61 727.914 374.61 727.656 374.61 727.397V727.138L374.885 702.277Z" fill="#8294A3"/>
<path d="M362.246 685.437C379.273 694.76 379.273 709.521 362.52 718.843C345.768 728.166 318.305 728.166 301.278 718.843C284.25 709.521 284.25 694.76 301.003 685.437C317.755 676.115 345.219 676.115 362.246 685.437Z" fill="#9BABBE"/>
<path d="M358.131 692.912C358.131 693.17 358.131 693.429 358.131 693.688C358.131 693.947 358.131 694.206 357.857 694.206C357.857 694.465 357.857 694.724 357.582 694.983C357.582 695.242 357.307 695.501 357.307 695.501C357.307 695.76 357.033 696.019 357.033 696.278C357.033 696.537 356.758 696.537 356.758 696.796C356.483 697.055 356.483 697.314 356.209 697.573C356.209 697.832 355.934 697.832 355.66 698.091C355.385 698.35 354.836 698.868 354.561 699.127C354.286 699.386 354.286 699.386 354.012 699.645C353.737 699.903 353.463 700.162 353.188 700.162C352.913 700.421 352.639 700.421 352.364 700.68C352.089 700.939 351.815 701.198 351.265 701.198C350.991 701.457 350.716 701.716 350.167 701.716C349.068 702.234 347.695 702.752 346.597 703.27C346.322 703.27 346.047 703.529 345.498 703.529C344.674 703.788 343.85 704.047 343.027 704.306C342.203 704.565 341.379 704.824 340.28 704.824C339.182 705.083 338.083 705.342 336.985 705.342C336.71 705.342 336.435 705.342 336.161 705.342C334.788 705.601 333.14 705.601 331.767 705.601C331.492 705.601 331.217 705.601 330.943 705.601C329.57 705.601 327.922 705.601 326.549 705.342C326.274 705.342 325.999 705.342 325.999 705.342C324.626 705.083 323.253 704.824 321.605 704.565C321.331 704.565 321.056 704.565 320.781 704.306C319.408 704.047 318.31 703.529 317.211 703.27C316.937 703.27 316.662 703.011 316.662 703.011C315.289 702.493 313.916 701.975 312.542 701.198C308.698 699.127 306.226 696.537 305.127 693.688C304.853 692.653 304.578 691.876 304.578 690.84V697.832C304.578 701.457 307.05 705.342 312.268 708.19C313.366 708.967 314.739 709.485 316.113 710.003H316.387C316.662 710.003 316.937 710.262 316.937 710.262C317.76 710.521 318.584 710.78 319.408 711.039C319.957 711.039 320.232 711.298 320.781 711.298C321.056 711.298 321.331 711.298 321.605 711.557C321.88 711.557 322.155 711.557 322.155 711.816C322.978 712.075 323.802 712.075 324.901 712.334C325.175 712.334 325.45 712.334 325.725 712.334C325.999 712.334 326.274 712.334 326.274 712.334C326.549 712.334 326.823 712.334 327.373 712.334C328.196 712.334 329.02 712.334 330.119 712.593C330.393 712.593 330.668 712.593 330.943 712.593C331.217 712.593 331.492 712.593 331.767 712.593C332.041 712.593 332.591 712.593 332.865 712.593C333.964 712.593 334.788 712.593 335.886 712.334H336.161C336.435 712.334 336.71 712.334 336.985 712.334C337.809 712.334 338.632 712.075 339.182 712.075C339.456 712.075 339.731 711.816 340.006 711.816C340.829 711.557 341.653 711.298 342.752 711.298C343.301 711.298 343.576 711.039 344.125 711.039C344.4 711.039 344.949 710.78 345.224 710.78C345.498 710.78 346.047 710.521 346.322 710.521C347.695 710.003 348.794 709.485 349.892 708.967C349.892 708.967 350.167 708.967 350.167 708.708C350.442 708.449 350.716 708.449 350.716 708.19C350.991 707.931 351.265 707.672 351.54 707.672C351.815 707.413 352.089 707.413 352.364 707.154C352.639 706.895 352.913 706.636 353.188 706.636C353.188 706.636 353.188 706.636 353.463 706.377L353.737 706.119C354.012 705.86 354.561 705.342 354.836 705.083L355.11 704.824C355.11 704.824 355.11 704.565 355.385 704.565C355.66 704.306 355.934 704.047 355.934 703.788L356.209 703.529C356.209 703.529 356.209 703.529 356.209 703.27C356.483 703.011 356.483 702.752 356.483 702.493C356.483 702.234 356.758 702.234 356.758 701.975C356.758 701.975 356.758 701.975 356.758 701.716C356.758 701.457 357.033 701.198 357.033 700.939C357.033 700.68 357.033 700.68 357.307 700.421C357.307 700.421 357.307 700.421 357.307 700.162C357.307 699.903 357.307 699.645 357.307 699.386C357.307 699.127 357.307 699.127 357.307 698.868V698.609V691.617C358.131 692.394 358.131 692.653 358.131 692.912Z" fill="#CAC9C9"/>
<path d="M358.215 692.367C358.239 684.358 346.331 677.833 331.619 677.794C316.907 677.755 304.96 684.216 304.936 692.225C304.912 700.234 316.819 706.758 331.532 706.798C346.244 706.837 358.191 700.376 358.215 692.367Z" fill="#F4F3F4"/>
<path d="M315.56 760.805L308.694 773.235L320.229 779.45L299.357 794.47L303.202 777.119L294.963 772.458L304.026 754.59L315.56 760.805Z" fill="#BBBBBB"/>
<path d="M644.005 458.141L434.736 565.35L517.95 686.803L725.571 575.709L644.005 458.141Z" fill="#181F24"/>
<path d="M450.406 550.002L653.908 446.418L734.1 559.325L530.049 668.348L450.406 550.002Z" fill="#29328A"/>
<path d="M530.042 668.399L495.987 617.901L657.196 451.648L715.143 532.703L644.014 607.543L530.042 668.399Z" fill="#464898"/>
<path d="M517.684 513.555L446.555 550.068L529.768 671.521L600.348 633.713L517.684 513.555ZM571.787 599.53L570.139 606.004L548.443 617.398L541.303 615.844L528.12 596.422L529.768 589.948L551.464 578.554L558.604 580.108L571.787 599.53ZM552.013 570.526L550.365 576.741L528.669 588.135L521.529 586.582L508.347 567.16L509.995 560.945L531.69 549.809L538.831 551.363L552.013 570.526ZM489.946 532.2L511.642 521.065L518.783 522.618L531.965 541.781L530.317 547.996L508.621 559.132L501.481 557.578L488.299 538.415L489.946 532.2ZM455.343 555.247L457.265 548.773L479.236 537.638L486.376 539.192L499.559 558.355L497.911 564.57L475.94 575.964L468.525 574.411L455.343 555.247ZM475.391 584.51L477.313 578.036L499.284 566.642L506.424 568.195L519.607 587.618L517.959 594.092L495.988 605.486L488.573 603.932L475.391 584.51ZM495.164 613.514L497.087 607.04L519.057 595.645L526.198 597.199L539.38 616.621L537.732 623.095L515.762 634.748L508.347 633.195L495.164 613.514ZM557.78 652.099L536.085 663.752L528.669 662.198L515.213 642.776L516.86 636.302L538.831 624.649L545.971 626.203L559.428 645.625L557.78 652.099ZM568.491 646.402L561.351 644.848L547.894 625.426L549.541 618.952L571.237 607.558L578.378 609.111L591.56 628.533L589.912 635.007L568.491 646.402Z" fill="white"/>
<path d="M587.445 477.805L517.688 513.541L600.353 633.699L669.56 596.668L587.445 477.805ZM641.273 562.744L639.625 568.959L618.478 580.094L611.338 578.54L598.155 559.377L599.803 553.162L621.225 542.027L628.365 543.581L641.273 562.744ZM621.499 534.258L619.851 540.473L598.43 551.609L591.29 550.055L578.107 530.892L579.755 524.677L601.176 513.541L608.317 515.095L621.499 534.258ZM560.256 496.191L581.678 485.315L588.818 486.868L602 505.772L600.353 511.988L578.931 523.123L571.791 521.569L558.609 502.406L560.256 496.191ZM526.202 518.979L527.85 512.764L549.271 501.629L556.412 503.183L569.594 522.346L567.946 528.561L546.525 539.696L539.384 538.143L526.202 518.979ZM545.976 547.724L547.623 541.509L569.045 530.374L576.185 531.928L589.367 551.091L587.719 557.306L566.298 568.441L559.158 566.887L545.976 547.724ZM566.024 576.469L567.671 570.254L589.093 559.118L596.233 560.672L609.415 579.835L607.768 586.05L586.346 597.445L579.206 595.891L566.024 576.469ZM627.541 614.795L606.12 626.189L598.979 624.636L585.797 605.472L587.445 599.257L608.866 587.863L616.007 589.417L629.189 608.58L627.541 614.795ZM638.252 609.098L631.111 607.544L617.929 588.381L619.577 582.166L640.723 571.031L647.864 572.584L661.046 591.747L659.398 597.963L638.252 609.098Z" fill="white"/>
<path d="M655.825 442.832L587.441 477.792L669.556 596.655L737.39 560.4L655.825 442.832ZM709.378 526.994L707.73 533.209L686.858 544.345L679.718 542.791L666.535 523.887L668.183 517.672L689.055 506.795L696.195 508.349L709.378 526.994ZM689.879 498.509L688.231 504.724L667.359 515.6L660.219 514.046L647.036 495.142L648.684 488.927L669.556 478.051L676.697 479.604L689.879 498.509ZM629.185 460.7L650.057 449.824L657.198 451.378L670.38 470.282L668.732 476.497L647.86 487.373L640.72 485.82L627.538 466.915L629.185 460.7ZM595.955 483.23L597.603 477.015L618.749 466.139L625.89 467.692L639.072 486.596L637.424 492.811L616.278 503.688L609.137 502.134L595.955 483.23ZM615.728 511.457L617.376 505.242L638.523 494.365L645.663 495.919L658.846 514.823L657.198 521.038L636.051 532.174L628.911 530.62L615.728 511.457ZM635.227 539.942L636.875 533.727L658.022 522.592L665.162 524.146L678.344 543.05L676.697 549.265L655.55 560.4L648.41 558.847L635.227 539.942ZM696.195 578.01L675.323 589.145L668.183 587.591L655.001 568.428L656.648 562.213L677.795 551.078L684.936 552.631L698.118 571.536L696.195 578.01ZM706.631 572.571L699.491 571.018L686.309 552.114L687.956 545.898L708.828 534.763L715.969 536.317L729.151 555.221L727.503 561.436L706.631 572.571Z" fill="white"/>
<path d="M446.557 550.078L442.438 555.775L525.376 675.156L529.77 671.531L446.557 550.078Z" fill="#C2C1C1"/>
<path d="M525.366 675.165L734.361 564.071L737.656 560.445L529.76 671.54L525.366 675.165Z" fill="#C2C1C1"/>
<path d="M639.079 784.137L760.192 840.331V797.085" stroke="#25B4B3" stroke-width="28.833" stroke-miterlimit="10"/>
<path d="M767.589 811.578V853.27C767.589 856.637 769.511 859.744 772.807 861.557L780.771 865.441C783.792 866.995 787.362 866.995 790.109 865.441L808.509 855.86C815.924 851.976 817.846 842.653 812.354 836.438L770.884 788.789" stroke="#252C35" stroke-width="18.221" stroke-miterlimit="10"/>
<path d="M761.276 820.644L748.368 813.134C746.721 812.098 745.622 810.545 745.622 808.473V802.258L761.276 810.027V820.644Z" fill="#F4F3F4"/>
<path d="M769.248 743.258L782.705 750.25L757.988 769.414L745.355 763.198V761.386C745.355 756.465 748.102 751.804 752.771 749.215L763.756 743.258C765.678 742.482 767.601 742.482 769.248 743.258Z" fill="#F4F3F4"/>
<path d="M758.255 768.394L745.622 763.215V804.649L758.255 811.641V768.394Z" fill="#F4F3F4"/>
<path d="M758.257 768.367L758.532 816.016C758.532 820.16 763.201 822.749 767.046 820.678L782.974 812.132C784.622 811.096 785.721 809.542 785.721 807.47L785.446 754.642C785.446 750.499 780.777 748.168 777.207 749.981L765.947 756.196C761.004 758.527 757.983 763.188 758.257 768.367Z" fill="white"/>
<path d="M764.312 776.9C764.312 777.418 764.861 777.936 765.411 777.418L766.234 776.9L766.509 775.864H766.234C765.685 775.864 765.411 775.864 765.411 775.605V775.346C765.411 775.346 765.41 775.087 765.96 774.828L767.333 774.051L768.431 771.203C768.431 770.944 768.706 770.426 768.981 770.426C770.079 769.649 770.903 769.131 772.002 768.613L773.924 767.577C775.023 767.059 775.846 766.541 776.945 766.023C777.22 766.023 777.494 766.023 777.494 766.282L778.593 767.836L779.966 767.059C780.515 766.8 780.515 767.059 780.515 767.059V767.318C780.515 767.836 780.241 768.095 779.691 768.354L779.417 768.613L779.966 769.908V771.462L779.691 771.98C778.318 774.31 773.924 776.641 773.1 777.159C772.276 777.677 767.882 780.007 766.509 779.23L766.234 778.971V777.418L765.411 777.936C764.587 778.454 763.763 777.936 763.763 777.159V775.605L764.312 775.346V776.9ZM772.826 771.721C774.199 770.944 775.572 770.167 776.945 769.649L777.769 769.131C777.769 769.131 778.318 768.872 778.044 768.613L777.769 768.095L777.494 767.577L776.945 766.8C775.572 767.318 774.199 767.836 773.1 768.613C771.727 769.39 770.354 770.167 769.255 770.944L768.706 772.238L768.431 773.274L768.157 774.051C767.882 774.569 768.431 774.31 768.431 774.31L769.255 773.792L769.805 773.274C770.903 773.015 772.002 772.238 772.826 771.721ZM778.044 772.756C778.318 772.497 778.593 772.238 778.593 771.721V770.944L777.22 771.721L776.396 773.533L778.044 772.756ZM767.608 777.677C767.608 777.936 767.882 778.195 768.157 777.936L769.805 777.159L768.981 776.123L767.608 776.9V777.677ZM771.178 776.641L775.023 774.569V774.051L771.178 776.123V776.641ZM771.178 775.864L775.023 773.792V773.274L771.178 775.346V775.864Z" fill="#BBBBBB"/>
<path d="M771.723 762.411L772.547 763.965L771.174 764.742L773.92 766.813L773.371 764.483L774.469 763.965L773.371 761.375L771.723 762.411Z" fill="#BBBBBB"/>
<path d="M765.967 780.236V781.53C765.967 782.048 766.241 782.307 766.791 782.048L768.438 781.271C768.988 781.012 769.262 780.494 769.262 779.977C768.164 780.236 766.791 780.494 765.967 780.236Z" fill="#BBBBBB"/>
<path d="M779.967 772.516C779.144 773.551 777.77 774.846 776.672 775.882C776.672 776.4 777.221 776.4 777.496 776.141L779.144 775.364C779.693 775.105 779.967 774.328 779.967 773.81V772.516Z" fill="#BBBBBB"/>
<path d="M679.958 739.111L625.856 717.358C625.032 717.099 624.208 716.063 624.208 715.028V651.064C624.208 650.287 625.032 649.769 625.856 650.028L679.958 671.781C680.782 672.04 681.606 673.076 681.606 674.112V738.075C681.331 739.111 680.782 739.37 679.958 739.111Z" fill="#ACB8BF"/>
<path d="M674.202 733.391L666.238 738.83L617.354 663.213C618.452 662.177 628.888 655.185 629.712 655.703L676.949 674.607C677.772 674.866 678.322 675.643 678.322 676.42V730.284C677.772 731.061 675.026 732.615 674.202 733.391Z" fill="#F4F3F4"/>
<path d="M665.14 738.561L617.903 719.657C617.08 719.398 616.53 718.621 616.53 717.845V663.722C616.53 662.945 617.08 662.686 617.903 662.945L665.14 681.849C665.964 682.108 666.513 682.885 666.513 683.662V737.526C666.513 738.561 665.964 738.82 665.14 738.561Z" fill="white"/>
<g opacity="0.8">
<g opacity="0.8">
<g opacity="0.8">
<path opacity="0.8" d="M623.387 695.306C622.563 695.047 621.739 693.753 621.739 692.717C621.739 691.94 622.289 691.422 622.838 691.422V691.94C622.289 691.94 622.014 692.458 622.014 692.976C622.014 693.753 622.563 694.788 623.387 695.047C624.211 695.306 624.76 694.788 624.76 694.011C624.76 693.494 624.486 692.717 623.936 692.199V691.94C624.486 692.458 625.035 693.235 625.035 694.27C625.035 695.047 624.486 695.565 623.387 695.306Z" fill="#0C0D0E"/>
</g>
<g opacity="0.8">
<path opacity="0.8" d="M623.66 693.494H623.386V691.422L623.66 691.681V693.494Z" fill="#0C0D0E"/>
</g>
</g>
</g>
<path d="M645.629 697.336V700.185C645.354 699.667 644.805 699.149 644.256 699.149C642.883 698.631 642.059 699.408 642.059 700.961C642.059 702.256 642.883 703.81 644.256 704.328C644.805 704.587 645.354 704.587 645.629 704.328V704.846L646.453 705.105V697.854L645.629 697.336ZM644.53 703.033C643.706 702.774 643.157 701.738 643.157 700.961C643.157 700.185 643.706 699.667 644.53 699.926C645.354 700.185 645.903 701.22 645.903 701.997C645.903 702.774 645.08 703.292 644.53 703.033Z" fill="#0D0D0F"/>
<path d="M641.51 702.804L640.411 702.545V697.625L641.51 697.884V702.804Z" fill="#0D0D0F"/>
<path d="M641.325 696.752C641.596 696.624 641.651 696.209 641.448 695.826C641.244 695.442 640.859 695.234 640.588 695.362C640.317 695.49 640.262 695.905 640.465 696.289C640.668 696.672 641.053 696.88 641.325 696.752Z" fill="#0D0D0F"/>
<path d="M635.19 695.558V695.817C634.916 695.299 634.366 695.04 633.817 694.781C632.444 694.263 631.62 695.04 631.62 696.594C631.62 697.888 632.444 699.442 633.817 699.96C634.366 700.219 634.641 700.219 635.19 699.96V700.478C635.19 701.255 634.641 701.773 633.817 701.514C633.543 701.255 633.268 700.996 632.993 700.737L632.444 701.255C632.719 701.773 633.268 702.291 633.817 702.55C635.19 703.068 636.014 702.291 636.014 700.996V696.076L635.19 695.558ZM633.817 698.924C632.993 698.665 632.444 697.629 632.444 696.853C632.444 696.076 632.993 695.558 633.817 695.817C634.641 696.076 635.19 697.112 635.19 697.888C635.19 698.665 634.641 699.183 633.817 698.924Z" fill="#0D0D0F"/>
<path d="M653.057 700.249L651.684 699.731L650.311 701.543L648.663 698.436L647.565 697.918L649.762 702.32L647.29 705.169L648.389 705.687L650.311 703.615L651.959 706.982L653.332 707.5L650.86 702.838L653.057 700.249Z" fill="#0D0D0F"/>
<path d="M639.314 698.18C639.589 698.18 639.589 698.18 639.314 698.18L639.863 697.403C639.589 697.403 639.589 697.144 639.314 697.144C638.765 696.885 638.216 696.885 637.941 697.144V696.626L637.117 696.367V701.287L637.941 701.546V698.957C638.216 698.18 638.765 697.921 639.314 698.18Z" fill="#0D0D0F"/>
<path d="M519.336 875.577L584.973 840.617V928.405L519.336 961.552V875.577Z" fill="white"/>
<path d="M418.267 821.434L519.331 875.556V961.532L418.267 907.409V821.434Z" fill="#E5E5E4"/>
<path d="M483.904 786.461L584.968 840.584L519.331 875.544L418.267 821.421L483.904 786.461Z" fill="#F4F3F4"/>
<path d="M449.158 908.749C458.06 907.89 463.851 894.046 462.093 877.827C460.334 861.607 451.692 849.154 442.79 850.013C433.888 850.871 428.096 864.715 429.855 880.934C431.613 897.154 440.256 909.607 449.158 908.749Z" fill="#CFCECE"/>
<path d="M452.591 906.338C443.528 906.338 435.289 893.131 433.916 877.075C433.092 865.163 436.113 855.064 441.331 850.402C433.641 852.474 428.423 864.645 429.797 879.406C431.17 895.462 439.409 908.669 448.472 908.669C450.943 908.669 453.14 907.633 455.063 906.079C453.964 906.338 453.14 906.338 452.591 906.338Z" fill="#C2C1C1"/>
<path d="M446.614 885.284C448.425 885.11 449.605 882.315 449.25 879.043C448.895 875.771 447.14 873.259 445.329 873.434C443.519 873.609 442.338 876.403 442.693 879.675C443.048 882.947 444.803 885.459 446.614 885.284Z" fill="#F4F3F4"/>
<path d="M445.179 879.928L437.764 856.881C437.764 856.881 439.961 850.148 447.65 852.737L446.003 879.41L445.179 879.928Z" fill="#F4F3F4"/>
<path d="M447.654 880.434L461.386 882.764C461.386 882.764 461.111 895.194 456.992 902.186L446.556 881.987L447.654 880.434Z" fill="#F4F3F4"/>
<path d="M443.801 879.367L433.639 882.475C433.639 882.475 432.541 888.69 438.034 896.718L444.899 881.18L443.801 879.367Z" fill="#F4F3F4"/>
<path d="M493.65 934.131C502.552 933.273 508.344 919.429 506.585 903.21C504.827 886.99 496.184 874.537 487.282 875.395C478.38 876.254 472.589 890.098 474.347 906.317C476.106 922.537 484.748 934.99 493.65 934.131Z" fill="#CFCECE"/>
<path d="M496.793 931.721C487.73 931.721 479.491 918.514 478.118 902.458C477.294 890.546 480.315 880.446 485.533 875.785C477.844 877.857 472.626 890.028 473.999 904.789C475.372 920.844 483.611 934.051 492.674 934.051C495.145 934.051 497.342 933.016 499.265 931.462C498.441 931.721 497.617 931.721 496.793 931.721Z" fill="#C2C1C1"/>
<path d="M491.106 910.667C492.917 910.492 494.097 907.698 493.742 904.426C493.387 901.154 491.632 898.642 489.821 898.817C488.011 898.991 486.831 901.786 487.185 905.058C487.54 908.33 489.296 910.842 491.106 910.667Z" fill="#F4F3F4"/>
<path d="M489.671 905.311L482.256 882.264C482.256 882.264 484.453 875.531 492.143 878.12L490.495 904.793L489.671 905.311Z" fill="#F4F3F4"/>
<path d="M492.122 905.527L505.854 907.858C505.854 907.858 505.579 920.288 501.459 927.28L491.023 907.081L492.122 905.527Z" fill="#F4F3F4"/>
<path d="M488.293 904.75L478.132 907.858C478.132 907.858 477.033 914.073 482.526 922.1L489.392 906.563L488.293 904.75Z" fill="#F4F3F4"/>
<path d="M527.837 882.043L576.447 856.406V861.068L527.837 886.964V882.043Z" fill="#E5E5E4"/>
<path d="M527.837 890.83L576.447 864.934V869.854L527.837 895.75V890.83Z" fill="#E5E5E4"/>
<path d="M527.837 900.13L576.447 874.234V879.155L527.837 905.051V900.13Z" fill="#E5E5E4"/>
</g>
<path d="M1425.1 398.134V418H1421.89V401.653L1416.08 416.056H1412.71L1406.9 401.809V418H1403.7V398.134H1408.62L1414.4 412.324L1420.17 398.134H1425.1ZM1433.11 404.406V418H1430.13V404.406H1433.11ZM1431.6 397.609C1432.78 397.609 1433.7 398.531 1433.7 399.709C1433.7 400.887 1432.78 401.781 1431.6 401.781C1430.43 401.781 1429.53 400.887 1429.53 399.709C1429.53 398.531 1430.43 397.609 1431.6 397.609ZM1444.87 404.051C1448.11 404.051 1450.39 406.279 1450.39 409.457V418H1447.41V410.437C1447.41 408.152 1446.24 406.875 1444.25 406.875C1442.33 406.875 1440.73 408.138 1440.73 410.465V418H1437.75V404.406H1440.7V406.066C1441.79 404.462 1443.48 404.051 1444.87 404.051ZM1457.89 404.406V418H1454.91V404.406H1457.89ZM1456.38 397.609C1457.56 397.609 1458.48 398.531 1458.48 399.709C1458.48 400.887 1457.56 401.781 1456.38 401.781C1455.2 401.781 1454.31 400.887 1454.31 399.709C1454.31 398.531 1455.2 397.609 1456.38 397.609ZM1479.31 404.051C1482.55 404.051 1484.83 406.279 1484.83 409.457V418H1481.85V410.437C1481.85 408.152 1480.68 406.875 1478.69 406.875C1476.77 406.875 1475.17 408.138 1475.17 410.465V418H1472.19V410.437C1472.19 408.152 1471.01 406.875 1469.03 406.875C1467.11 406.875 1465.51 408.138 1465.51 410.465V418H1462.53V404.406H1465.48V406.066C1466.57 404.462 1468.26 404.051 1469.65 404.051C1471.72 404.051 1473.41 404.973 1474.35 406.478C1475.53 404.533 1477.63 404.051 1479.31 404.051ZM1492.34 404.406V418H1489.36V404.406H1492.34ZM1490.83 397.609C1492.01 397.609 1492.93 398.531 1492.93 399.709C1492.93 400.887 1492.01 401.781 1490.83 401.781C1489.65 401.781 1488.76 400.887 1488.76 399.709C1488.76 398.531 1489.65 397.609 1490.83 397.609ZM1507.65 404.406V406.563L1500.23 415.304H1507.79V418H1496.28V415.843L1503.83 407.102H1496.51V404.406H1507.65ZM1517.26 404.051C1521.07 404.051 1523.68 406.946 1523.69 411.189C1523.69 411.572 1523.66 411.955 1523.63 412.296H1513.59C1513.98 414.736 1515.7 415.758 1517.63 415.758C1518.99 415.758 1520.44 415.219 1521.56 414.325L1523.04 416.439C1521.38 417.858 1519.5 418.355 1517.45 418.355C1513.37 418.355 1510.49 415.517 1510.49 411.203C1510.49 406.946 1513.26 404.051 1517.26 404.051ZM1517.21 406.69C1515.09 406.69 1513.91 408.053 1513.6 410.039H1520.65C1520.33 407.925 1519.09 406.69 1517.21 406.69ZM1540.79 404.051C1544.6 404.051 1547.21 406.946 1547.22 411.189C1547.22 411.572 1547.19 411.955 1547.16 412.296H1537.12C1537.51 414.736 1539.23 415.758 1541.16 415.758C1542.52 415.758 1543.97 415.219 1545.09 414.325L1546.57 416.439C1544.91 417.858 1543.03 418.355 1540.98 418.355C1536.9 418.355 1534.02 415.517 1534.02 411.203C1534.02 406.946 1536.79 404.051 1540.79 404.051ZM1540.74 406.69C1538.62 406.69 1537.44 408.053 1537.13 410.039H1544.18C1543.86 407.925 1542.62 406.69 1540.74 406.69ZM1558.01 404.051C1561.24 404.051 1563.53 406.279 1563.53 409.457V418H1560.55V410.437C1560.55 408.152 1559.37 406.875 1557.38 406.875C1555.47 406.875 1553.86 408.138 1553.86 410.465V418H1550.88V404.406H1553.84V406.066C1554.93 404.462 1556.62 404.051 1558.01 404.051ZM1573.83 404.051C1577.63 404.051 1580.24 406.946 1580.26 411.189C1580.26 411.572 1580.23 411.955 1580.2 412.296H1570.15C1570.55 414.736 1572.27 415.758 1574.2 415.758C1575.56 415.758 1577.01 415.219 1578.13 414.325L1579.6 416.439C1577.94 417.858 1576.07 418.355 1574.01 418.355C1569.94 418.355 1567.06 415.517 1567.06 411.203C1567.06 406.946 1569.83 404.051 1573.83 404.051ZM1573.77 406.69C1571.66 406.69 1570.48 408.053 1570.17 410.039H1577.22C1576.89 407.925 1575.66 406.69 1573.77 406.69ZM1590.8 404.051C1591.71 404.051 1592.41 404.164 1593.09 404.434L1592.38 407.371C1591.75 407.045 1590.85 406.875 1590.12 406.875C1588.23 406.875 1586.89 408.209 1586.89 410.522V418H1583.92V404.406H1586.86V405.938C1587.75 404.647 1589.14 404.051 1590.8 404.051ZM1600.88 404.051C1602.85 404.051 1604.39 404.746 1605.41 406.038V404.406H1608.39V417.049C1608.39 421.321 1605.64 423.946 1601.1 423.946C1599.07 423.946 1596.84 423.392 1595.4 422.371L1596.48 419.859C1597.86 420.696 1599.43 421.235 1601.1 421.235C1603.88 421.235 1605.41 419.703 1605.41 417.177V416.084C1604.39 417.39 1602.85 418.071 1600.88 418.071C1597.77 418.071 1594.58 415.46 1594.58 411.061C1594.58 406.662 1597.77 404.051 1600.88 404.051ZM1601.65 406.846C1599.14 406.846 1597.63 408.762 1597.63 411.061C1597.63 413.346 1599.14 415.275 1601.65 415.275C1604.05 415.275 1605.66 413.445 1605.66 411.061C1605.66 408.677 1604.05 406.846 1601.65 406.846ZM1626.13 404.406L1615.4 423.761H1612.11L1616.98 415.205L1610.95 404.406H1614.28L1618.65 412.21L1622.87 404.406H1626.13ZM1641.89 404.051C1643.92 404.051 1645.77 404.789 1646.97 406.222L1645.07 408.251C1644.12 407.357 1643.11 406.846 1641.81 406.846C1639.52 406.846 1637.79 408.634 1637.79 411.203C1637.79 413.771 1639.52 415.559 1641.81 415.559C1643.11 415.559 1644.28 414.949 1645.14 414.14L1646.97 416.184C1645.74 417.617 1643.92 418.355 1641.89 418.355C1637.57 418.355 1634.74 415.275 1634.74 411.203C1634.74 407.13 1637.57 404.051 1641.89 404.051ZM1656.35 404.051C1660.55 404.051 1663.67 407.13 1663.67 411.203C1663.67 415.275 1660.55 418.355 1656.35 418.355C1652.15 418.355 1649.04 415.275 1649.04 411.203C1649.04 407.13 1652.15 404.051 1656.35 404.051ZM1656.35 406.846C1653.92 406.846 1652.09 408.634 1652.09 411.203C1652.09 413.771 1653.92 415.559 1656.35 415.559C1658.78 415.559 1660.62 413.771 1660.62 411.203C1660.62 408.634 1658.78 406.846 1656.35 406.846ZM1677.87 405.498L1676.6 407.811C1675.77 407.301 1674.08 406.648 1672.4 406.648C1670.78 406.648 1669.83 407.301 1669.83 408.265C1669.83 409.216 1670.82 409.486 1672.07 409.67L1673.47 409.883C1676.44 410.309 1678.2 411.572 1678.2 413.899C1678.2 416.51 1675.93 418.341 1672.01 418.341C1670.61 418.341 1668.17 418.071 1666.18 416.595L1667.56 414.367C1668.54 415.119 1669.83 415.758 1672.04 415.758C1674.07 415.758 1675.13 415.119 1675.13 414.098C1675.13 413.331 1674.4 412.821 1672.78 412.594L1671.36 412.409C1668.35 411.998 1666.75 410.607 1666.75 408.422C1666.75 405.725 1668.9 404.065 1672.37 404.065C1674.5 404.065 1676.47 404.59 1677.87 405.498ZM1690.97 404.406V407.102H1685.76V413.019C1685.76 414.85 1686.72 415.559 1687.92 415.559C1688.84 415.559 1689.85 415.148 1690.65 414.637L1691.83 417.007C1690.74 417.745 1689.36 418.355 1687.66 418.355C1684.58 418.355 1682.78 416.694 1682.78 413.076V407.102H1680.07V404.406H1682.78V400.291H1685.76V404.406H1690.97ZM1705.12 405.498L1703.84 407.811C1703.02 407.301 1701.33 406.648 1699.64 406.648C1698.02 406.648 1697.07 407.301 1697.07 408.265C1697.07 409.216 1698.06 409.486 1699.31 409.67L1700.72 409.883C1703.68 410.309 1705.44 411.572 1705.44 413.899C1705.44 416.51 1703.17 418.341 1699.26 418.341C1697.85 418.341 1695.41 418.071 1693.42 416.595L1694.8 414.367C1695.78 415.119 1697.07 415.758 1699.28 415.758C1701.31 415.758 1702.38 415.119 1702.38 414.098C1702.38 413.331 1701.64 412.821 1700.02 412.594L1698.6 412.409C1695.6 411.998 1693.99 410.607 1693.99 408.422C1693.99 405.725 1696.15 404.065 1699.61 404.065C1701.74 404.065 1703.71 404.59 1705.12 405.498ZM1410.93 433.552L1411.98 436.291C1408.29 437.993 1406.14 441.782 1406.14 445.94C1406.14 450.098 1408.29 453.886 1411.98 455.589L1410.93 458.328C1406.12 456.327 1402.94 451.616 1402.94 445.94C1402.94 440.264 1406.12 435.553 1410.93 433.552ZM1418.36 433.566V454H1415.38V433.566H1418.36ZM1429.33 440.051C1433.53 440.051 1436.66 443.13 1436.66 447.203C1436.66 451.275 1433.53 454.355 1429.33 454.355C1425.13 454.355 1422.03 451.275 1422.03 447.203C1422.03 443.13 1425.13 440.051 1429.33 440.051ZM1429.33 442.846C1426.91 442.846 1425.08 444.634 1425.08 447.203C1425.08 449.771 1426.91 451.559 1429.33 451.559C1431.76 451.559 1433.61 449.771 1433.61 447.203C1433.61 444.634 1431.76 442.846 1429.33 442.846ZM1451.57 440.406L1454.96 450.793L1458.16 440.406H1461.26L1456.76 454H1453.21L1449.85 443.755L1446.49 454H1442.99L1438.5 440.406H1441.66L1444.85 450.736L1448.2 440.406H1451.57ZM1469.87 440.051C1473.67 440.051 1476.28 442.946 1476.3 447.189C1476.3 447.572 1476.27 447.955 1476.24 448.296H1466.19C1466.59 450.736 1468.31 451.758 1470.24 451.758C1471.6 451.758 1473.05 451.219 1474.17 450.325L1475.64 452.439C1473.98 453.858 1472.11 454.355 1470.05 454.355C1465.98 454.355 1463.1 451.517 1463.1 447.203C1463.1 442.946 1465.87 440.051 1469.87 440.051ZM1469.81 442.69C1467.7 442.69 1466.52 444.053 1466.21 446.039H1473.26C1472.93 443.925 1471.7 442.69 1469.81 442.69ZM1486.84 440.051C1487.75 440.051 1488.45 440.164 1489.13 440.434L1488.42 443.371C1487.79 443.045 1486.88 442.875 1486.16 442.875C1484.27 442.875 1482.93 444.209 1482.93 446.522V454H1479.96V440.406H1482.9V441.938C1483.79 440.647 1485.18 440.051 1486.84 440.051ZM1505.32 440.051C1509.12 440.051 1511.73 442.946 1511.74 447.189C1511.74 447.572 1511.72 447.955 1511.69 448.296H1501.64C1502.04 450.736 1503.76 451.758 1505.69 451.758C1507.05 451.758 1508.5 451.219 1509.62 450.325L1511.09 452.439C1509.43 453.858 1507.56 454.355 1505.5 454.355C1501.43 454.355 1498.55 451.517 1498.55 447.203C1498.55 442.946 1501.32 440.051 1505.32 440.051ZM1505.26 442.69C1503.15 442.69 1501.97 444.053 1501.66 446.039H1508.71C1508.38 443.925 1507.15 442.69 1505.26 442.69ZM1522.53 440.051C1525.77 440.051 1528.05 442.279 1528.05 445.457V454H1525.07V446.437C1525.07 444.152 1523.89 442.875 1521.91 442.875C1519.99 442.875 1518.39 444.138 1518.39 446.465V454H1515.41V440.406H1518.36V442.066C1519.45 440.462 1521.14 440.051 1522.53 440.051ZM1538.35 440.051C1542.16 440.051 1544.77 442.946 1544.78 447.189C1544.78 447.572 1544.75 447.955 1544.72 448.296H1534.68C1535.08 450.736 1536.79 451.758 1538.72 451.758C1540.08 451.758 1541.53 451.219 1542.65 450.325L1544.13 452.439C1542.47 453.858 1540.6 454.355 1538.54 454.355C1534.47 454.355 1531.58 451.517 1531.58 447.203C1531.58 442.946 1534.35 440.051 1538.35 440.051ZM1538.3 442.69C1536.18 442.69 1535 444.053 1534.69 446.039H1541.74C1541.42 443.925 1540.18 442.69 1538.3 442.69ZM1555.33 440.051C1556.24 440.051 1556.93 440.164 1557.61 440.434L1556.9 443.371C1556.28 443.045 1555.37 442.875 1554.65 442.875C1552.76 442.875 1551.41 444.209 1551.41 446.522V454H1548.44V440.406H1551.38V441.938C1552.28 440.647 1553.67 440.051 1555.33 440.051ZM1565.41 440.051C1567.38 440.051 1568.91 440.746 1569.93 442.038V440.406H1572.91V453.049C1572.91 457.321 1570.16 459.946 1565.62 459.946C1563.59 459.946 1561.36 459.392 1559.93 458.371L1561.01 455.859C1562.38 456.696 1563.96 457.235 1565.62 457.235C1568.4 457.235 1569.93 455.703 1569.93 453.177V452.084C1568.91 453.39 1567.38 454.071 1565.41 454.071C1562.3 454.071 1559.11 451.46 1559.11 447.061C1559.11 442.662 1562.3 440.051 1565.41 440.051ZM1566.17 442.846C1563.66 442.846 1562.16 444.762 1562.16 447.061C1562.16 449.346 1563.66 451.275 1566.17 451.275C1568.57 451.275 1570.19 449.445 1570.19 447.061C1570.19 444.677 1568.57 442.846 1566.17 442.846ZM1590.66 440.406L1579.93 459.761H1576.64L1581.5 451.205L1575.47 440.406H1578.81L1583.18 448.21L1587.39 440.406H1590.66ZM1607.47 440.051C1611.27 440.051 1614.26 443.045 1614.26 447.203C1614.26 451.361 1611.27 454.355 1607.47 454.355C1605.54 454.355 1604.15 453.574 1603.21 452.382V454H1600.24V433.566H1603.21V442.023C1604.15 440.831 1605.54 440.051 1607.47 440.051ZM1607.11 442.846C1604.66 442.846 1603.01 444.72 1603.01 447.203C1603.01 449.686 1604.66 451.559 1607.11 451.559C1609.67 451.559 1611.21 449.587 1611.21 447.203C1611.21 444.819 1609.67 442.846 1607.11 442.846ZM1620.91 440.406V454H1617.93V440.406H1620.91ZM1619.4 433.609C1620.58 433.609 1621.5 434.531 1621.5 435.709C1621.5 436.887 1620.58 437.781 1619.4 437.781C1618.23 437.781 1617.33 436.887 1617.33 435.709C1617.33 434.531 1618.23 433.609 1619.4 433.609ZM1628.53 433.566V454H1625.55V433.566H1628.53ZM1636.15 433.566V454H1633.17V433.566H1636.15ZM1640.59 458.3L1639.54 455.561C1643.23 453.858 1645.39 450.069 1645.39 445.912C1645.39 441.754 1643.23 437.965 1639.54 436.262L1640.59 433.523C1645.4 435.524 1648.58 440.235 1648.58 445.912C1648.58 451.588 1645.4 456.299 1640.59 458.3Z" fill="black"/>
<circle cx="1248.48" cy="427.776" r="91.7757" fill="#519EFF"/>
<path d="M1263.14 431.25V441.698H1234.5C1238.06 449.887 1244.89 454.575 1253.42 454.575C1260.88 454.575 1266.41 451.243 1270.59 446.555L1278.95 457.512C1272.51 464.289 1264.27 468.412 1253.54 468.412C1235.97 468.412 1222.92 458.302 1218.29 441.698H1208.47V431.25H1216.6C1216.49 430.007 1216.49 428.765 1216.49 427.466C1216.49 426.223 1216.49 424.924 1216.6 423.682H1208.47V413.234H1218.29C1222.92 396.629 1235.97 386.52 1253.54 386.52C1264.04 386.52 1272.62 390.473 1279.18 397.25L1270.48 408.433C1266.3 403.689 1260.82 400.357 1253.37 400.357C1244.67 400.357 1237.95 405.214 1234.45 413.234H1263.14V423.682H1231.96C1231.85 424.924 1231.79 426.167 1231.79 427.466C1231.79 428.765 1231.85 430.064 1231.96 431.25H1263.14Z" fill="#F1F4FA"/>
<path d="M1425.1 692.134V712H1421.89V695.653L1416.08 710.056H1412.71L1406.9 695.809V712H1403.7V692.134H1408.62L1414.4 706.324L1420.17 692.134H1425.1ZM1443.18 698.406V712H1440.22V710.368C1439.28 711.574 1437.88 712.355 1435.95 712.355C1432.14 712.355 1429.15 709.361 1429.15 705.203C1429.15 701.045 1432.14 698.051 1435.95 698.051C1437.88 698.051 1439.28 698.846 1440.22 700.052V698.406H1443.18ZM1436.3 700.846C1433.75 700.846 1432.2 702.819 1432.2 705.203C1432.2 707.587 1433.75 709.559 1436.3 709.559C1438.76 709.559 1440.4 707.686 1440.4 705.203C1440.4 702.72 1438.76 700.846 1436.3 700.846ZM1459.86 698.406L1454.83 705.033L1459.96 712H1456.31L1452.86 707.275L1449.46 712H1445.98L1451.1 705.061L1446.06 698.406H1449.71L1453.02 702.947L1456.35 698.406H1459.86ZM1465.73 698.406V712H1462.75V698.406H1465.73ZM1464.22 691.609C1465.4 691.609 1466.32 692.531 1466.32 693.709C1466.32 694.887 1465.4 695.781 1464.22 695.781C1463.05 695.781 1462.15 694.887 1462.15 693.709C1462.15 692.531 1463.05 691.609 1464.22 691.609ZM1487.16 698.051C1490.39 698.051 1492.68 700.279 1492.68 703.457V712H1489.7V704.437C1489.7 702.152 1488.52 700.875 1486.53 700.875C1484.62 700.875 1483.01 702.138 1483.01 704.465V712H1480.03V704.437C1480.03 702.152 1478.86 700.875 1476.87 700.875C1474.95 700.875 1473.35 702.138 1473.35 704.465V712H1470.37V698.406H1473.32V700.066C1474.41 698.462 1476.1 698.051 1477.49 698.051C1479.57 698.051 1481.25 698.973 1482.19 700.478C1483.37 698.533 1485.47 698.051 1487.16 698.051ZM1500.18 698.406V712H1497.2V698.406H1500.18ZM1498.67 691.609C1499.85 691.609 1500.78 692.531 1500.78 693.709C1500.78 694.887 1499.85 695.781 1498.67 695.781C1497.5 695.781 1496.6 694.887 1496.6 693.709C1496.6 692.531 1497.5 691.609 1498.67 691.609ZM1515.49 698.406V700.563L1508.07 709.304H1515.63V712H1504.13V709.843L1511.67 701.102H1504.35V698.406H1515.49ZM1525.11 698.051C1528.91 698.051 1531.52 700.946 1531.53 705.189C1531.53 705.572 1531.51 705.955 1531.48 706.296H1521.43C1521.83 708.736 1523.54 709.758 1525.47 709.758C1526.84 709.758 1528.28 709.219 1529.41 708.325L1530.88 710.439C1529.22 711.858 1527.35 712.355 1525.29 712.355C1521.22 712.355 1518.34 709.517 1518.34 705.203C1518.34 700.946 1521.1 698.051 1525.11 698.051ZM1525.05 700.69C1522.93 700.69 1521.76 702.053 1521.44 704.039H1528.5C1528.17 701.925 1526.94 700.69 1525.05 700.69ZM1553.38 699.498L1552.1 701.811C1551.28 701.301 1549.59 700.648 1547.9 700.648C1546.28 700.648 1545.33 701.301 1545.33 702.265C1545.33 703.216 1546.32 703.486 1547.57 703.67L1548.98 703.883C1551.94 704.309 1553.7 705.572 1553.7 707.899C1553.7 710.51 1551.43 712.341 1547.51 712.341C1546.11 712.341 1543.67 712.071 1541.68 710.595L1543.06 708.367C1544.04 709.119 1545.33 709.758 1547.54 709.758C1549.57 709.758 1550.64 709.119 1550.64 708.098C1550.64 707.331 1549.9 706.821 1548.28 706.594L1546.86 706.409C1543.85 705.998 1542.25 704.607 1542.25 702.422C1542.25 699.725 1544.41 698.065 1547.87 698.065C1550 698.065 1551.97 698.59 1553.38 699.498ZM1562.99 698.051C1566.8 698.051 1569.41 700.946 1569.42 705.189C1569.42 705.572 1569.39 705.955 1569.36 706.296H1559.32C1559.71 708.736 1561.43 709.758 1563.36 709.758C1564.72 709.758 1566.17 709.219 1567.29 708.325L1568.77 710.439C1567.11 711.858 1565.23 712.355 1563.18 712.355C1559.1 712.355 1556.22 709.517 1556.22 705.203C1556.22 700.946 1558.99 698.051 1562.99 698.051ZM1562.94 700.69C1560.82 700.69 1559.64 702.053 1559.33 704.039H1566.38C1566.06 701.925 1564.82 700.69 1562.94 700.69ZM1576.06 691.566V712H1573.08V691.566H1576.06ZM1589.43 698.406V701.102H1584.78V712H1581.8V701.102H1579.07V698.406H1581.8V696.107C1581.8 693.382 1583.17 691.211 1586.35 691.211C1587.94 691.211 1589.13 691.637 1590.14 692.233L1589.09 694.73C1588.4 694.333 1587.45 694.007 1586.55 694.007C1585.4 694.007 1584.78 694.759 1584.78 696.107V698.406H1589.43ZM1600.33 703.089V705.785H1592.1V703.089H1600.33ZM1615.07 699.498L1613.79 701.811C1612.97 701.301 1611.28 700.648 1609.59 700.648C1607.97 700.648 1607.02 701.301 1607.02 702.265C1607.02 703.216 1608.02 703.486 1609.27 703.67L1610.67 703.883C1613.64 704.309 1615.4 705.572 1615.4 707.899C1615.4 710.51 1613.13 712.341 1609.21 712.341C1607.8 712.341 1605.36 712.071 1603.38 710.595L1604.75 708.367C1605.73 709.119 1607.02 709.758 1609.24 709.758C1611.27 709.758 1612.33 709.119 1612.33 708.098C1612.33 707.331 1611.59 706.821 1609.98 706.594L1608.56 706.409C1605.55 705.998 1603.94 704.607 1603.94 702.422C1603.94 699.725 1606.1 698.065 1609.56 698.065C1611.69 698.065 1613.66 698.59 1615.07 699.498ZM1631.36 698.406V706.239C1631.36 710.567 1628.23 712.355 1625.06 712.355C1621.86 712.355 1618.76 710.567 1618.76 706.239V698.406H1621.74V705.969C1621.74 708.594 1623.2 709.559 1625.06 709.559C1626.91 709.559 1628.38 708.594 1628.38 705.969V698.406H1631.36ZM1644.59 698.406V701.102H1639.93V712H1636.95V701.102H1634.23V698.406H1636.95V696.107C1636.95 693.382 1638.33 691.211 1641.51 691.211C1643.1 691.211 1644.29 691.637 1645.3 692.233L1644.25 694.73C1643.55 694.333 1642.6 694.007 1641.71 694.007C1640.56 694.007 1639.93 694.759 1639.93 696.107V698.406H1644.59ZM1656.56 698.406V701.102H1651.9V712H1648.92V701.102H1646.2V698.406H1648.92V696.107C1648.92 693.382 1650.3 691.211 1653.48 691.211C1655.07 691.211 1656.26 691.637 1657.27 692.233L1656.22 694.73C1655.52 694.333 1654.57 694.007 1653.68 694.007C1652.53 694.007 1651.9 694.759 1651.9 696.107V698.406H1656.56ZM1662.79 698.406V712H1659.81V698.406H1662.79ZM1661.28 691.609C1662.46 691.609 1663.38 692.531 1663.38 693.709C1663.38 694.887 1662.46 695.781 1661.28 695.781C1660.1 695.781 1659.21 694.887 1659.21 693.709C1659.21 692.531 1660.1 691.609 1661.28 691.609ZM1673.6 698.051C1675.63 698.051 1677.47 698.789 1678.68 700.222L1676.78 702.251C1675.83 701.357 1674.82 700.846 1673.51 700.846C1671.23 700.846 1669.5 702.634 1669.5 705.203C1669.5 707.771 1671.23 709.559 1673.51 709.559C1674.82 709.559 1675.98 708.949 1676.85 708.14L1678.68 710.184C1677.45 711.617 1675.63 712.355 1673.6 712.355C1669.27 712.355 1666.45 709.275 1666.45 705.203C1666.45 701.13 1669.27 698.051 1673.6 698.051ZM1684.99 698.406V712H1682.01V698.406H1684.99ZM1683.48 691.609C1684.66 691.609 1685.58 692.531 1685.58 693.709C1685.58 694.887 1684.66 695.781 1683.48 695.781C1682.3 695.781 1681.41 694.887 1681.41 693.709C1681.41 692.531 1682.3 691.609 1683.48 691.609ZM1695.42 698.051C1699.22 698.051 1701.83 700.946 1701.84 705.189C1701.84 705.572 1701.82 705.955 1701.79 706.296H1691.74C1692.14 708.736 1693.86 709.758 1695.79 709.758C1697.15 709.758 1698.6 709.219 1699.72 708.325L1701.19 710.439C1699.53 711.858 1697.66 712.355 1695.6 712.355C1691.53 712.355 1688.65 709.517 1688.65 705.203C1688.65 700.946 1691.41 698.051 1695.42 698.051ZM1695.36 700.69C1693.25 700.69 1692.07 702.053 1691.76 704.039H1698.81C1698.48 701.925 1697.25 700.69 1695.36 700.69ZM1712.63 698.051C1715.87 698.051 1718.15 700.279 1718.15 703.457V712H1715.17V704.437C1715.17 702.152 1713.99 700.875 1712.01 700.875C1710.09 700.875 1708.49 702.138 1708.49 704.465V712H1705.51V698.406H1708.46V700.066C1709.55 698.462 1711.24 698.051 1712.63 698.051ZM1728.84 698.051C1730.87 698.051 1732.71 698.789 1733.92 700.222L1732.01 702.251C1731.06 701.357 1730.06 700.846 1728.75 700.846C1726.47 700.846 1724.74 702.634 1724.74 705.203C1724.74 707.771 1726.47 709.559 1728.75 709.559C1730.06 709.559 1731.22 708.949 1732.09 708.14L1733.92 710.184C1732.68 711.617 1730.87 712.355 1728.84 712.355C1724.51 712.355 1721.68 709.275 1721.68 705.203C1721.68 701.13 1724.51 698.051 1728.84 698.051ZM1750.33 698.406L1739.6 717.761H1736.31L1741.17 709.205L1735.14 698.406H1738.48L1742.85 706.21L1747.06 698.406H1750.33Z" fill="black"/>
<circle cx="1249.78" cy="702.776" r="91.7757" fill="#519EFF"/>
<path d="M1417.9 988.963V992H1403.7V972.134H1406.9V988.963H1417.9ZM1427.09 978.051C1431.29 978.051 1434.41 981.13 1434.41 985.203C1434.41 989.275 1431.29 992.355 1427.09 992.355C1422.89 992.355 1419.78 989.275 1419.78 985.203C1419.78 981.13 1422.89 978.051 1427.09 978.051ZM1427.09 980.846C1424.66 980.846 1422.83 982.634 1422.83 985.203C1422.83 987.771 1424.66 989.559 1427.09 989.559C1429.52 989.559 1431.36 987.771 1431.36 985.203C1431.36 982.634 1429.52 980.846 1427.09 980.846ZM1449.32 978.406L1452.71 988.793L1455.92 978.406H1459.01L1454.51 992H1450.97L1447.6 981.755L1444.24 992H1440.75L1436.25 978.406H1439.42L1442.61 988.736L1445.96 978.406H1449.32ZM1467.62 978.051C1471.43 978.051 1474.04 980.946 1474.05 985.189C1474.05 985.572 1474.02 985.955 1474 986.296H1463.95C1464.35 988.736 1466.06 989.758 1467.99 989.758C1469.36 989.758 1470.8 989.219 1471.92 988.325L1473.4 990.439C1471.74 991.858 1469.87 992.355 1467.81 992.355C1463.74 992.355 1460.86 989.517 1460.86 985.203C1460.86 980.946 1463.62 978.051 1467.62 978.051ZM1467.57 980.69C1465.45 980.69 1464.28 982.053 1463.96 984.039H1471.02C1470.69 981.925 1469.45 980.69 1467.57 980.69ZM1484.6 978.051C1485.51 978.051 1486.2 978.164 1486.88 978.434L1486.17 981.371C1485.55 981.045 1484.64 980.875 1483.92 980.875C1482.03 980.875 1480.68 982.209 1480.68 984.522V992H1477.72V978.406H1480.65V979.938C1481.55 978.647 1482.94 978.051 1484.6 978.051ZM1503.46 978.051C1505.48 978.051 1507.33 978.789 1508.54 980.222L1506.63 982.251C1505.68 981.357 1504.68 980.846 1503.37 980.846C1501.09 980.846 1499.35 982.634 1499.35 985.203C1499.35 987.771 1501.09 989.559 1503.37 989.559C1504.68 989.559 1505.84 988.949 1506.7 988.14L1508.54 990.184C1507.3 991.617 1505.48 992.355 1503.46 992.355C1499.13 992.355 1496.3 989.275 1496.3 985.203C1496.3 981.13 1499.13 978.051 1503.46 978.051ZM1524.64 978.406V992H1521.67V990.368C1520.74 991.574 1519.33 992.355 1517.4 992.355C1513.6 992.355 1510.6 989.361 1510.6 985.203C1510.6 981.045 1513.6 978.051 1517.4 978.051C1519.33 978.051 1520.74 978.846 1521.67 980.052V978.406H1524.64ZM1517.76 980.846C1515.2 980.846 1513.66 982.819 1513.66 985.203C1513.66 987.587 1515.2 989.559 1517.76 989.559C1520.21 989.559 1521.86 987.686 1521.86 985.203C1521.86 982.72 1520.21 980.846 1517.76 980.846ZM1536.18 978.051C1537.08 978.051 1537.78 978.164 1538.46 978.434L1537.75 981.371C1537.13 981.045 1536.22 980.875 1535.49 980.875C1533.61 980.875 1532.26 982.209 1532.26 984.522V992H1529.29V978.406H1532.23V979.938C1533.12 978.647 1534.52 978.051 1536.18 978.051ZM1548.71 978.051C1552.51 978.051 1555.51 981.045 1555.51 985.203C1555.51 989.361 1552.51 992.355 1548.71 992.355C1546.78 992.355 1545.39 991.574 1544.45 990.382V992H1541.49V971.566H1544.45V980.023C1545.39 978.831 1546.78 978.051 1548.71 978.051ZM1548.36 980.846C1545.9 980.846 1544.26 982.72 1544.26 985.203C1544.26 987.686 1545.9 989.559 1548.36 989.559C1550.91 989.559 1552.46 987.587 1552.46 985.203C1552.46 982.819 1550.91 980.846 1548.36 980.846ZM1565.5 978.051C1569.7 978.051 1572.82 981.13 1572.82 985.203C1572.82 989.275 1569.7 992.355 1565.5 992.355C1561.3 992.355 1558.19 989.275 1558.19 985.203C1558.19 981.13 1561.3 978.051 1565.5 978.051ZM1565.5 980.846C1563.07 980.846 1561.24 982.634 1561.24 985.203C1561.24 987.771 1563.07 989.559 1565.5 989.559C1567.93 989.559 1569.77 987.771 1569.77 985.203C1569.77 982.634 1567.93 980.846 1565.5 980.846ZM1583.62 978.051C1586.85 978.051 1589.14 980.279 1589.14 983.457V992H1586.16V984.437C1586.16 982.152 1584.98 980.875 1582.99 980.875C1581.08 980.875 1579.47 982.138 1579.47 984.465V992H1576.49V978.406H1579.44V980.066C1580.54 978.462 1582.23 978.051 1583.62 978.051ZM1609.89 978.406V981.102H1605.23V992H1602.25V981.102H1599.53V978.406H1602.25V976.107C1602.25 973.382 1603.63 971.211 1606.81 971.211C1608.4 971.211 1609.59 971.637 1610.6 972.233L1609.55 974.73C1608.85 974.333 1607.9 974.007 1607.01 974.007C1605.86 974.007 1605.23 974.759 1605.23 976.107V978.406H1609.89ZM1619.05 978.051C1623.25 978.051 1626.37 981.13 1626.37 985.203C1626.37 989.275 1623.25 992.355 1619.05 992.355C1614.85 992.355 1611.74 989.275 1611.74 985.203C1611.74 981.13 1614.85 978.051 1619.05 978.051ZM1619.05 980.846C1616.62 980.846 1614.79 982.634 1614.79 985.203C1614.79 987.771 1616.62 989.559 1619.05 989.559C1621.47 989.559 1623.32 987.771 1623.32 985.203C1623.32 982.634 1621.47 980.846 1619.05 980.846ZM1636.37 978.051C1640.57 978.051 1643.69 981.13 1643.69 985.203C1643.69 989.275 1640.57 992.355 1636.37 992.355C1632.17 992.355 1629.06 989.275 1629.06 985.203C1629.06 981.13 1632.17 978.051 1636.37 978.051ZM1636.37 980.846C1633.94 980.846 1632.11 982.634 1632.11 985.203C1632.11 987.771 1633.94 989.559 1636.37 989.559C1638.79 989.559 1640.64 987.771 1640.64 985.203C1640.64 982.634 1638.79 980.846 1636.37 980.846ZM1656.49 978.406V981.102H1651.28V987.019C1651.28 988.85 1652.25 989.559 1653.44 989.559C1654.36 989.559 1655.37 989.148 1656.18 988.637L1657.35 991.007C1656.26 991.745 1654.89 992.355 1653.18 992.355C1650.1 992.355 1648.3 990.694 1648.3 987.076V981.102H1645.59V978.406H1648.3V974.291H1651.28V978.406H1656.49ZM1667.33 978.051C1671.14 978.051 1674.13 981.045 1674.13 985.203C1674.13 989.361 1671.14 992.355 1667.33 992.355C1665.4 992.355 1664.01 991.574 1663.08 990.382V997.676H1660.11V978.406H1663.08V980.023C1664.01 978.831 1665.4 978.051 1667.33 978.051ZM1666.98 980.846C1664.52 980.846 1662.88 982.72 1662.88 985.203C1662.88 987.686 1664.52 989.559 1666.98 989.559C1669.53 989.559 1671.08 987.587 1671.08 985.203C1671.08 982.819 1669.53 980.846 1666.98 980.846ZM1684.67 978.051C1685.58 978.051 1686.28 978.164 1686.96 978.434L1686.25 981.371C1685.63 981.045 1684.72 980.875 1683.99 980.875C1682.11 980.875 1680.76 982.209 1680.76 984.522V992H1677.79V978.406H1680.73V979.938C1681.62 978.647 1683.01 978.051 1684.67 978.051ZM1692.97 978.406V992H1689.99V978.406H1692.97ZM1691.46 971.609C1692.64 971.609 1693.56 972.531 1693.56 973.709C1693.56 974.887 1692.64 975.781 1691.46 975.781C1690.29 975.781 1689.39 974.887 1689.39 973.709C1689.39 972.531 1690.29 971.609 1691.46 971.609ZM1704.73 978.051C1707.97 978.051 1710.25 980.279 1710.25 983.457V992H1707.27V984.437C1707.27 982.152 1706.09 980.875 1704.11 980.875C1702.19 980.875 1700.59 982.138 1700.59 984.465V992H1697.61V978.406H1700.56V980.066C1701.65 978.462 1703.34 978.051 1704.73 978.051ZM1723.89 978.406V981.102H1718.68V987.019C1718.68 988.85 1719.65 989.559 1720.84 989.559C1721.76 989.559 1722.77 989.148 1723.58 988.637L1724.76 991.007C1723.67 991.745 1722.29 992.355 1720.59 992.355C1717.51 992.355 1715.7 990.694 1715.7 987.076V981.102H1712.99V978.406H1715.7V974.291H1718.68V978.406H1723.89Z" fill="black"/>
<circle cx="1248.78" cy="979.776" r="91.7757" fill="#519EFF"/>
<g clip-path="url(#clip1_1689_61989)">
<path d="M1285.94 744.779C1287.46 746.585 1287.23 749.291 1285.32 750.673C1276.3 757.203 1265.61 761.101 1254.45 761.882C1241.86 762.762 1229.32 759.635 1218.62 752.948C1207.92 746.262 1199.61 736.36 1194.88 724.661C1190.69 714.284 1189.51 702.967 1191.42 691.998C1191.83 689.677 1194.16 688.286 1196.45 688.856L1196.86 688.96C1199.15 689.53 1200.52 691.845 1200.14 694.172C1198.67 703.297 1199.71 712.682 1203.19 721.303C1207.21 731.247 1214.27 739.664 1223.37 745.348C1232.46 751.031 1243.12 753.689 1253.82 752.941C1263.1 752.293 1271.99 749.113 1279.54 743.786C1281.47 742.428 1284.15 742.647 1285.67 744.452L1285.94 744.779Z" fill="#F1F4FA"/>
<path d="M1214.62 659.778C1213.1 657.972 1213.33 655.266 1215.24 653.884C1224.26 647.354 1234.95 643.456 1246.11 642.675C1258.7 641.795 1271.24 644.922 1281.94 651.609C1292.64 658.295 1300.95 668.197 1305.68 679.896C1309.87 690.272 1311.05 701.59 1309.14 712.558C1308.73 714.88 1306.4 716.271 1304.11 715.7L1301.67 715.09C1299.38 714.52 1298.01 712.205 1298.37 709.877C1299.75 701.182 1298.74 692.249 1295.43 684.038C1291.57 674.504 1284.8 666.435 1276.08 660.986C1267.36 655.537 1257.14 652.988 1246.88 653.706C1238.05 654.323 1229.58 657.336 1222.37 662.382C1220.44 663.733 1217.75 663.515 1216.24 661.709L1214.62 659.778Z" fill="#B2D1FF"/>
<path d="M1198.41 677.619C1200.04 675.916 1202.74 675.856 1204.44 677.485C1206.15 679.115 1206.21 681.816 1204.58 683.519L1192.78 695.855C1191.15 697.558 1188.44 697.618 1186.74 695.988C1185.04 694.359 1184.98 691.657 1186.61 689.954L1198.41 677.619Z" fill="#F1F4FA"/>
<path d="M1197.35 680.779C1197.29 678.423 1199.16 676.47 1201.52 676.418C1203.88 676.366 1205.83 678.234 1205.88 680.591L1206.26 697.657C1206.31 700.014 1204.44 701.966 1202.09 702.019C1199.73 702.071 1197.78 700.203 1197.72 697.846L1197.35 680.779Z" fill="#F1F4FA"/>
<path d="M1301.69 727.096C1300.06 728.799 1297.36 728.859 1295.66 727.23C1293.96 725.6 1293.9 722.899 1295.53 721.195L1307.33 708.86C1308.96 707.157 1311.66 707.097 1313.36 708.726C1315.06 710.355 1315.12 713.057 1313.49 714.76L1301.69 727.096Z" fill="#B2D1FF"/>
<path d="M1302.76 723.935C1302.81 726.292 1300.94 728.244 1298.58 728.297C1296.23 728.349 1294.27 726.481 1294.22 724.125L1293.84 707.058C1293.79 704.701 1295.66 702.749 1298.02 702.696C1300.37 702.644 1302.32 704.512 1302.38 706.868L1302.76 723.935Z" fill="#B2D1FF"/>
</g>
<g clip-path="url(#clip2_1689_61989)">
<path d="M1240.82 1005.62C1240.82 1016.76 1231.39 1025.79 1219.75 1025.79C1208.12 1025.79 1198.69 1016.76 1198.69 1005.62C1198.69 994.487 1208.12 985.459 1219.75 985.459C1231.39 985.459 1240.82 994.487 1240.82 1005.62Z" fill="#B2D1FF"/>
<path d="M1316.05 1016.46C1316.05 1027.59 1306.62 1036.62 1294.99 1036.62C1283.35 1036.62 1273.92 1027.59 1273.92 1016.46C1273.92 1005.32 1283.35 996.293 1294.99 996.293C1306.62 996.293 1316.05 1005.32 1316.05 1016.46Z" fill="#B2D1FF"/>
<path d="M1230.59 967.403C1230.59 983.359 1217.25 996.293 1200.79 996.293C1184.34 996.293 1171 983.359 1171 967.403C1171 951.447 1184.34 938.512 1200.79 938.512C1217.25 938.512 1230.59 951.447 1230.59 967.403Z" fill="#B2D1FF"/>
<path d="M1255.87 943.628C1255.87 955.097 1246.3 964.393 1234.5 964.393C1222.7 964.393 1213.13 955.097 1213.13 943.628C1213.13 932.16 1222.7 922.863 1234.5 922.863C1246.3 922.863 1255.87 932.16 1255.87 943.628Z" fill="#B2D1FF"/>
<path d="M1325.08 955.967C1325.08 964.277 1316.86 971.014 1306.72 971.014C1296.59 971.014 1288.37 964.277 1288.37 955.967C1288.37 947.657 1296.59 940.92 1306.72 940.92C1316.86 940.92 1325.08 947.657 1325.08 955.967Z" fill="#B2D1FF"/>
<path d="M1307.03 981.246C1307.03 1003.52 1288.16 1021.57 1264.89 1021.57C1241.63 1021.57 1222.76 1003.52 1222.76 981.246C1222.76 958.975 1241.63 940.92 1264.89 940.92C1288.16 940.92 1307.03 958.975 1307.03 981.246Z" fill="#B2D1FF"/>
<path d="M1221.2 958.375C1210.82 958.375 1203.5 965.718 1203.5 975.854C1203.5 985.989 1210.82 993.332 1221.2 993.332C1227.36 993.332 1232.44 990.588 1235.42 986.206L1229.94 982.258C1227.91 985.195 1224.88 986.88 1221.15 986.88C1215.2 986.88 1210.53 982.619 1210.51 975.854C1210.51 969.305 1215.03 964.827 1221.15 964.827C1224.9 964.827 1227.96 966.561 1229.86 969.474L1235.64 965.935C1232.9 961.216 1227.41 958.375 1221.2 958.375Z" fill="#F1F4FA"/>
<path d="M1256.84 958.375C1246.46 958.375 1239.14 965.79 1239.14 975.854C1239.14 985.917 1246.46 993.332 1256.84 993.332C1267.22 993.332 1274.56 985.917 1274.56 975.854C1274.56 965.79 1267.22 958.375 1256.84 958.375ZM1256.84 964.827C1263.05 964.827 1267.53 969.305 1267.53 975.854C1267.53 982.402 1263.05 986.88 1256.84 986.88C1250.65 986.88 1246.15 982.402 1246.15 975.854C1246.15 969.305 1250.65 964.827 1256.84 964.827Z" fill="#F1F4FA"/>
<path d="M1280.9 988.445C1281.98 987.338 1283.16 986.375 1284.89 986.375C1286.39 986.375 1287.49 987.314 1287.49 988.758C1287.49 989.769 1286.99 990.732 1286.03 991.647L1279.07 998.268V1001.98H1292.86V997.594H1285.79L1289.25 994.295C1291.42 992.225 1292.41 990.588 1292.41 988.228C1292.41 984.376 1289.66 981.849 1285.4 981.849C1281.55 981.849 1279.28 983.799 1278.03 985.339L1280.9 988.445Z" fill="#F1F4FA"/>
</g>
<defs>
<clipPath id="clip0_1689_61989">
<rect width="922.762" height="643" fill="white" transform="translate(106 419)"/>
</clipPath>
<clipPath id="clip1_1689_61989">
<rect width="136.568" height="136.568" fill="white" transform="translate(1225.28 609) rotate(30)"/>
</clipPath>
<clipPath id="clip2_1689_61989">
<rect width="154.082" height="154.082" fill="white" transform="translate(1171 903)"/>
</clipPath>
</defs>
</svg>
